<?xml version="1.0" encoding="UTF-8" standalone="no"?>
<!-- Generated by graphviz version 2.38.0 (20140413.2041)
 -->

<!-- Title: snakemake_dag Pages: 1 -->

<svg
   xmlns:dc="http://purl.org/dc/elements/1.1/"
   xmlns:cc="http://creativecommons.org/ns#"
   xmlns:rdf="http://www.w3.org/1999/02/22-rdf-syntax-ns#"
   xmlns:svg="http://www.w3.org/2000/svg"
   xmlns="http://www.w3.org/2000/svg"
   xmlns:sodipodi="http://sodipodi.sourceforge.net/DTD/sodipodi-0.dtd"
   xmlns:inkscape="http://www.inkscape.org/namespaces/inkscape"
   width="424.6806pt"
   height="702.3465pt"
   viewBox="0 0 424.13753 702.3465"
   version="1.1"
   id="svg170"
   sodipodi:docname="dag3.svg"
   inkscape:version="0.92.3 (2405546, 2018-03-11)">
  <metadata
     id="metadata176">
    <rdf:RDF>
      <cc:Work
         rdf:about="">
        <dc:format>image/svg+xml</dc:format>
        <dc:type
           rdf:resource="http://purl.org/dc/dcmitype/StillImage" />
        <dc:title></dc:title>
      </cc:Work>
    </rdf:RDF>
  </metadata>
  <defs
     id="defs174" />
  <sodipodi:namedview
     pagecolor="#ffffff"
     bordercolor="#666666"
     borderopacity="1"
     objecttolerance="10"
     gridtolerance="10"
     guidetolerance="10"
     inkscape:pageopacity="0"
     inkscape:pageshadow="2"
     inkscape:window-width="1920"
     inkscape:window-height="891"
     id="namedview172"
     showgrid="false"
     inkscape:zoom="1"
     inkscape:cx="456.7694"
     inkscape:cy="268.65046"
     inkscape:window-x="0"
     inkscape:window-y="28"
     inkscape:window-maximized="1"
     inkscape:current-layer="graph0"
     fit-margin-top="0"
     fit-margin-left="0"
     fit-margin-right="0"
     fit-margin-bottom="0" />
  <g
     id="graph0"
     class="graph"
     transform="translate(39.96531,543.99996)">
    <title
       id="title2">snakemake_dag</title>
    <polygon
       points="-4,-544 386.5,-544 386.5,4 -4,4 "
       id="polygon4"
       transform="matrix(1.0875303,0,0,1.2816542,-35.865176,153.21992)"
       style="fill:#ffffff;stroke:none" />
    <!-- 0 -->
    <g
       id="node1"
       class="node">
      <title
         id="title6">0</title>
      <path
         d="m 154,-36 c 0,0 -49,0 -49,0 -6,0 -12,6 -12,12 0,0 0,12 0,12 0,6 6,12 12,12 0,0 49,0 49,0 6,0 12,-6 12,-12 0,0 0,-12 0,-12 0,-6 -6,-12 -12,-12"
         id="path8"
         inkscape:connector-curvature="0"
         style="fill:none;stroke:#d8a456;stroke-width:2;stroke-dasharray:5, 2" />
      <text
         x="129.5"
         y="-15.5"
         font-size="10.00"
         id="text10"
         style="font-size:10px;font-family:sans;text-anchor:middle">bam_to_sam</text>
    </g>
    <!-- 1 -->
    <g
       id="node2"
       class="node">
      <title
         id="title13">1</title>
      <path
         d="m 182.5,-180 c 0,0 -106,0 -106,0 -6,0 -12,6 -12,12 0,0 0,12 0,12 0,6 6,12 12,12 0,0 106,0 106,0 6,0 12,-6 12,-12 0,0 0,-12 0,-12 0,-6 -6,-12 -12,-12"
         id="path15"
         inkscape:connector-curvature="0"
         style="fill:none;stroke:#56d8c9;stroke-width:2;stroke-dasharray:5, 2" />
      <text
         x="129.5"
         y="-159.5"
         font-size="10.00"
         id="text17"
         style="font-size:10px;font-family:sans;text-anchor:middle">remove_duplicates_picard</text>
    </g>
    <!-- 1&#45;&gt;0 -->
    <g
       id="edge1"
       class="edge">
      <title
         id="title20">1-&gt;0</title>
      <path
         d="m 122.434,-143.665 c -3.772,10.195 -8.022,23.445 -9.934,35.665 -2.473,15.8077 -2.473,20.1923 0,36 1.359,8.6878 3.9,17.8961 6.611,26.157"
         id="path22"
         inkscape:connector-curvature="0"
         style="fill:none;stroke:#808080;stroke-width:2" />
      <polygon
         points="115.831,-44.6203 122.439,-46.9297 122.434,-36.3349 "
         id="polygon24"
         style="fill:#808080;stroke:#808080;stroke-width:2" />
    </g>
    <!-- 2 -->
    <g
       id="node3"
       class="node">
      <title
         id="title27">2</title>
      <path
         d="m 197,-108 c 0,0 -63,0 -63,0 -6,0 -12,6 -12,12 0,0 0,12 0,12 0,6 6,12 12,12 0,0 63,0 63,0 6,0 12,-6 12,-12 0,0 0,-12 0,-12 0,-6 -6,-12 -12,-12"
         id="path29"
         inkscape:connector-curvature="0"
         style="fill:none;stroke:#78d856;stroke-width:2;stroke-dasharray:5, 2" />
      <text
         x="165.5"
         y="-87.5"
         font-size="10.00"
         id="text31"
         style="font-size:10px;font-family:sans;text-anchor:middle">index_final_bam</text>
    </g>
    <!-- 1&#45;&gt;2 -->
    <g
       id="edge4"
       class="edge">
      <title
         id="title34">1-&gt;2</title>
      <path
         d="m 138.399,-143.697 c 4.098,7.969 9.05,17.597 13.594,26.433"
         id="path36"
         inkscape:connector-curvature="0"
         style="fill:none;stroke:#808080;stroke-width:2" />
      <polygon
         points="149.017,-115.396 155.242,-118.598 156.703,-108.104 "
         id="polygon38"
         style="fill:#808080;stroke:#808080;stroke-width:2" />
    </g>
    <!-- 2&#45;&gt;0 -->
    <g
       id="edge2"
       class="edge">
      <title
         id="title41">2-&gt;0</title>
      <path
         d="m 156.601,-71.6966 c -4.098,7.9682 -9.05,17.5971 -13.594,26.4325"
         id="path43"
         inkscape:connector-curvature="0"
         style="fill:none;stroke:#808080;stroke-width:2" />
      <polygon
         points="139.758,-46.598 145.983,-43.3965 138.297,-36.1043 "
         id="polygon45"
         style="fill:#808080;stroke:#808080;stroke-width:2" />
    </g>
    <!-- 3 -->
    <g
       id="node4"
       class="node">
      <title
         id="title48">3</title>
      <path
         d="m 170,-252 c 0,0 -81,0 -81,0 -6,0 -12,6 -12,12 0,0 0,12 0,12 0,6 6,12 12,12 0,0 81,0 81,0 6,0 12,-6 12,-12 0,0 0,-12 0,-12 0,-6 -6,-12 -12,-12"
         id="path50"
         inkscape:connector-curvature="0"
         style="fill:none;stroke:#56c9d8;stroke-width:2;stroke-dasharray:5, 2" />
      <text
         x="129.5"
         y="-231.5"
         font-size="10.00"
         id="text52"
         style="font-size:10px;font-family:sans;text-anchor:middle">sam_to_sorted_bam</text>
    </g>
    <!-- 3&#45;&gt;1 -->
    <g
       id="edge3"
       class="edge">
      <title
         id="title55">3-&gt;1</title>
      <path
         d="m 129.5,-215.697 c 0,7.714 0,16.985 0,25.585"
         id="path57"
         inkscape:connector-curvature="0"
         style="fill:none;stroke:#808080;stroke-width:2" />
      <polygon
         points="126,-190.104 133,-190.104 129.5,-180.104 "
         id="polygon59"
         style="fill:#808080;stroke:#808080;stroke-width:2" />
    </g>
    <!-- 4 -->
    <g
       id="node5"
       class="node">
      <title
         id="title62">4</title>
      <path
         d="m 160,-324 c 0,0 -61,0 -61,0 -6,0 -12,6 -12,12 0,0 0,12 0,12 0,6 6,12 12,12 0,0 61,0 61,0 6,0 12,-6 12,-12 0,0 0,-12 0,-12 0,-6 -6,-12 -12,-12"
         id="path64"
         inkscape:connector-curvature="0"
         style="fill:none;stroke:#56d87b;stroke-width:2;stroke-dasharray:5, 2" />
      <text
         x="129.5"
         y="-303.5"
         font-size="10.00"
         id="text66"
         style="font-size:10px;font-family:sans;text-anchor:middle">hisat2_mapping</text>
    </g>
    <!-- 4&#45;&gt;3 -->
    <g
       id="edge5"
       class="edge">
      <title
         id="title69">4-&gt;3</title>
      <path
         d="m 129.5,-287.697 c 0,7.714 0,16.985 0,25.585"
         id="path71"
         inkscape:connector-curvature="0"
         style="fill:none;stroke:#808080;stroke-width:2" />
      <polygon
         points="126,-262.104 133,-262.104 129.5,-252.104 "
         id="polygon73"
         style="fill:#808080;stroke:#808080;stroke-width:2" />
    </g>
    <!-- 5 -->
    <g
       id="node6"
       class="node">
      <title
         id="title76">5</title>
      <path
         d="m 87,-396 c 0,0 -47,0 -47,0 -6,0 -12,6 -12,12 0,0 0,12 0,12 0,6 6,12 12,12 0,0 47,0 47,0 6,0 12,-6 12,-12 0,0 0,-12 0,-12 0,-6 -6,-12 -12,-12"
         id="path78"
         inkscape:connector-curvature="0"
         style="fill:none;stroke:#9fd856;stroke-width:2;stroke-dasharray:5, 2" />
      <text
         x="63.5"
         y="-375.5"
         font-size="10.00"
         id="text80"
         style="font-size:10px;font-family:sans;text-anchor:middle">trimmomatic</text>
    </g>
    <!-- 5&#45;&gt;4 -->
    <g
       id="edge6"
       class="edge">
      <title
         id="title83">5-&gt;4</title>
      <path
         d="m 79.8146,-359.697 c 7.9924,8.477 17.7569,18.833 26.5074,28.114"
         id="path85"
         inkscape:connector-curvature="0"
         style="fill:none;stroke:#808080;stroke-width:2" />
      <polygon
         points="103.966,-328.979 109.059,-333.781 113.373,-324.104 "
         id="polygon87"
         style="fill:#808080;stroke:#808080;stroke-width:2" />
    </g>
    <!-- 6 -->
    <g
       id="node7"
       class="node">
      <title
         id="title90">6</title>
      <path
         d="m 198,-396 c 0,0 -47,0 -47,0 -6,0 -12,6 -12,12 0,0 0,12 0,12 0,6 6,12 12,12 0,0 47,0 47,0 6,0 12,-6 12,-12 0,0 0,-12 0,-12 0,-6 -6,-12 -12,-12"
         id="path92"
         inkscape:connector-curvature="0"
         style="fill:none;stroke:#56a2d8;stroke-width:2;stroke-dasharray:5, 2" />
      <text
         x="174.5"
         y="-375.5"
         font-size="10.00"
         id="text94"
         style="font-size:10px;font-family:sans;text-anchor:middle">hisat2_index</text>
    </g>
    <!-- 6&#45;&gt;4 -->
    <g
       id="edge7"
       class="edge">
      <title
         id="title97">6-&gt;4</title>
      <path
         d="m 163.376,-359.697 c -5.231,8.138 -11.576,18.008 -17.354,26.996"
         id="path99"
         inkscape:connector-curvature="0"
         style="fill:none;stroke:#808080;stroke-width:2" />
      <polygon
         points="142.959,-334.409 148.847,-330.623 140.496,-324.104 "
         id="polygon101"
         style="fill:#808080;stroke:#808080;stroke-width:2" />
    </g>
    <!-- 7 -->
    <g
       id="node8"
       class="node">
      <title
         id="title104">7</title>
      <path
         d="m 73,-468 c 0,0 -61,0 -61,0 -6,0 -12,6 -12,12 0,0 0,12 0,12 0,6 6,12 12,12 0,0 61,0 61,0 6,0 12,-6 12,-12 0,0 0,-12 0,-12 0,-6 -6,-12 -12,-12"
         id="path106"
         inkscape:connector-curvature="0"
         style="fill:none;stroke:#59d856;stroke-width:2;stroke-dasharray:5, 2" />
      <text
         x="40.378681"
         y="-447.16638"
         font-size="10.00"
         id="text108"
         style="font-size:10px;font-family:sans;text-anchor:middle">cutadapt</text>
      <path
         inkscape:connector-curvature="0"
         style="fill:none;stroke:#59d856;stroke-width:2;stroke-dasharray:5.00000011, 2.00000004"
         d="m 72.000013,-536.375 c 0,0 -60.999997,0 -60.999997,0 -5.9999996,0 -11.99999962,6 -11.99999962,12 0,0 0,12 0,12 0,6 6.00000002,12 11.99999962,12 0,0 60.999997,0 60.999997,0 5.999998,0 11.999998,-6 11.999998,-12 0,0 0,-12 0,-12 0,-6 -6,-12 -11.999998,-12"
         id="path106-9" />
    </g>
    <!-- 7&#45;&gt;5 -->
    <g
       id="edge8"
       class="edge">
      <title
         id="title113">7-&gt;5</title>
      <path
         d="m 47.691,-431.697 c 2.3396,7.799 5.1564,17.188 7.7603,25.868"
         id="path115"
         inkscape:connector-curvature="0"
         style="fill:none;stroke:#808080;stroke-width:2" />
      <polygon
         points="52.1428,-404.677 58.8475,-406.688 58.3687,-396.104 "
         id="polygon117"
         style="fill:#808080;stroke:#808080;stroke-width:2" />
    </g>
    <!-- 8 -->
    <g
       id="node9"
       class="node">
      <title
         id="title120">8</title>
      <path
         d="m 234,-468 c 0,0 -119,0 -119,0 -6,0 -12,6 -12,12 0,0 0,12 0,12 0,6 6,12 12,12 0,0 119,0 119,0 6,0 12,-6 12,-12 0,0 0,-12 0,-12 0,-6 -6,-12 -12,-12"
         id="path122"
         inkscape:connector-curvature="0"
         style="fill:none;stroke:#c6d856;stroke-width:2;stroke-dasharray:5, 2" />
      <text
         x="174.5"
         y="-447.5"
         font-size="10.00"
         id="text124"
         style="font-size:10px;font-family:sans;text-anchor:middle">extract_genome_splice_sites</text>
    </g>
    <!-- 8&#45;&gt;6 -->
    <g
       id="edge9"
       class="edge">
      <title
         id="title127">8-&gt;6</title>
      <path
         d="m 174.5,-431.697 c 0,7.714 0,16.985 0,25.585"
         id="path129"
         inkscape:connector-curvature="0"
         style="fill:none;stroke:#808080;stroke-width:2" />
      <polygon
         points="171,-406.104 178,-406.104 174.5,-396.104 "
         id="polygon131"
         style="fill:#808080;stroke:#808080;stroke-width:2" />
    </g>
    <!-- 9 -->
    <g
       id="node10"
       class="node">
      <title
         id="title134">9</title>
      <path
         d="m 370.5,-468 c 0,0 -94,0 -94,0 -6,0 -12,6 -12,12 0,0 0,12 0,12 0,6 6,12 12,12 0,0 94,0 94,0 6,0 12,-6 12,-12 0,0 0,-12 0,-12 0,-6 -6,-12 -12,-12"
         id="path136"
         inkscape:connector-curvature="0"
         style="fill:none;stroke:#567bd8;stroke-width:2;stroke-dasharray:5, 2" />
      <text
         x="323.5"
         y="-447.5"
         font-size="10.00"
         id="text138"
         style="font-size:10px;font-family:sans;text-anchor:middle">extract_genome_exons</text>
    </g>
    <!-- 9&#45;&gt;6 -->
    <g
       id="edge10"
       class="edge">
      <title
         id="title141">9-&gt;6</title>
      <path
         d="m 287.05,-431.876 c -20.413,9.59 -46.036,21.628 -67.676,31.794"
         id="path143"
         inkscape:connector-curvature="0"
         style="fill:none;stroke:#808080;stroke-width:2" />
      <polygon
         points="217.622,-403.126 220.598,-396.79 210.059,-395.706 "
         id="polygon145"
         style="fill:#808080;stroke:#808080;stroke-width:2" />
    </g>
    <!-- 10 -->
    <g
       id="node11"
       class="node">
      <title
         id="title148">10</title>
      <path
         d="m 287,-540 c 0,0 -77,0 -77,0 -6,0 -12,6 -12,12 0,0 0,12 0,12 0,6 6,12 12,12 0,0 77,0 77,0 6,0 12,-6 12,-12 0,0 0,-12 0,-12 0,-6 -6,-12 -12,-12"
         id="path150"
         inkscape:connector-curvature="0"
         style="fill:none;stroke:#56d8a2;stroke-width:2;stroke-dasharray:5, 2" />
      <text
         x="248.5"
         y="-519.5"
         font-size="10.00"
         id="text152"
         style="font-size:10px;font-family:sans;text-anchor:middle">convert_gff3_to_gtf</text>
    </g>
    <!-- 10&#45;&gt;8 -->
    <g
       id="edge11"
       class="edge">
      <title
         id="title155">10-&gt;8</title>
      <path
         d="m 230.208,-503.697 c -9.141,8.647 -20.348,19.248 -30.308,28.67"
         id="path157"
         inkscape:connector-curvature="0"
         style="fill:none;stroke:#808080;stroke-width:2" />
      <polygon
         points="197.441,-477.519 202.252,-472.434 192.582,-468.104 "
         id="polygon159"
         style="fill:#808080;stroke:#808080;stroke-width:2" />
    </g>
    <!-- 10&#45;&gt;9 -->
    <g
       id="edge12"
       class="edge">
      <title
         id="title162">10-&gt;9</title>
      <path
         d="m 267.039,-503.697 c 9.264,8.647 20.623,19.248 30.718,28.67"
         id="path164"
         inkscape:connector-curvature="0"
         style="fill:none;stroke:#808080;stroke-width:2" />
      <polygon
         points="295.475,-472.369 300.251,-477.486 305.174,-468.104 "
         id="polygon166"
         style="fill:#808080;stroke:#808080;stroke-width:2" />
    </g>
    <g
       id="graph0-3"
       class="graph"
       transform="translate(47.798418,145.63778)">
      <title
         id="title4108">snakemake_dag</title>
      <polygon
         style="fill:#ffffff;stroke:none"
         points="170,-112 170,4 -4,4 -4,-112 "
         id="polygon4110" />
      <!-- 0 -->
      <g
         id="node1-6"
         class="node">
        <title
           id="title4112">0</title>
        <path
           style="fill:none;stroke:#d8a456;stroke-width:2;stroke-dasharray:5, 2"
           inkscape:connector-curvature="0"
           d="m 154,-36 c 0,0 -142,0 -142,0 -6,0 -12,6 -12,12 0,0 0,12 0,12 0,6 6,12 12,12 0,0 142,0 142,0 6,0 12,-6 12,-12 0,0 0,-12 0,-12 0,-6 -6,-12 -12,-12"
           id="path4114" />
        <text
           style="font-size:10px;font-family:sans;text-anchor:middle"
           x="83"
           y="-15.5"
           font-size="10.00"
           id="text4116">Assign_Gene_and_Transcript_IDs</text>
      </g>
      <!-- 1 -->
      <g
         id="node2-7"
         class="node">
        <title
           id="title4119">1</title>
        <path
           style="fill:none;stroke:#d87d56;stroke-width:2;stroke-dasharray:5, 2"
           inkscape:connector-curvature="0"
           d="m 128.5,-108 c 0,0 -91,0 -91,0 -6,0 -12,6 -12,12 0,0 0,12 0,12 0,6 6,12 12,12 0,0 91,0 91,0 6,0 12,-6 12,-12 0,0 0,-12 0,-12 0,-6 -6,-12 -12,-12"
           id="path4121" />
        <text
           style="font-size:10px;font-family:sans;text-anchor:middle"
           x="83"
           y="-87.5"
           font-size="10.00"
           id="text4123">Identify_Mu_insertions</text>
      </g>
      <!-- 1&#45;&gt;0 -->
      <g
         id="edge1-5"
         class="edge">
        <title
           id="title4126">1-&gt;0</title>
        <path
           style="fill:none;stroke:#808080;stroke-width:2"
           inkscape:connector-curvature="0"
           d="m 83,-71.6966 c 0,7.7139 0,16.9841 0,25.5842"
           id="path4128" />
        <polygon
           style="fill:#808080;stroke:#808080;stroke-width:2"
           points="83,-36.1043 79.5001,-46.1044 86.5001,-46.1043 "
           id="polygon4130" />
      </g>
    </g>
    <g
       transform="translate(48.003549,71.779939)"
       id="edge1-5-3"
       class="edge">
      <title
         id="title4126-5">1-&gt;0</title>
      <path
         style="fill:none;stroke:#808080;stroke-width:2"
         inkscape:connector-curvature="0"
         d="m 83,-71.6966 c 0,7.7139 0,16.9841 0,25.5842"
         id="path4128-6" />
      <polygon
         style="fill:#808080;stroke:#808080;stroke-width:2"
         points="86.5001,-46.1043 83,-36.1043 79.5001,-46.1044 "
         id="polygon4130-2" />
    </g>
    <text
       x="40.567883"
       y="-522.88037"
       font-size="10.00"
       id="text110"
       style="font-size:10px;font-family:sans;text-anchor:middle;stroke-width:1">samples:</text>
    <text
       x="40.61512"
       y="-510.04788"
       font-size="10.00"
       id="text110-1"
       style="font-size:10px;font-family:sans;text-anchor:middle;stroke-width:1">e.g.: Row_01</text>
    <g
       transform="matrix(1.0278037,0,0,0.84938809,-138.96302,-134.02486)"
       id="edge9-2"
       class="edge">
      <title
         id="title127-7">8-&gt;6</title>
      <path
         style="fill:none;stroke:#808080;stroke-width:2"
         inkscape:connector-curvature="0"
         d="m 174.5,-431.697 c 0,7.714 0,16.985 0,25.585"
         id="path129-0" />
      <polygon
         style="fill:#808080;stroke:#808080;stroke-width:2"
         points="174.5,-396.104 171,-406.104 178,-406.104 "
         id="polygon131-9" />
    </g>
  </g>
</svg>
