<?xml version="1.0" encoding="UTF-8" standalone="no"?>
<!-- Generated by graphviz version 2.38.0 (20140413.2041)
 -->

<!-- Title: snakemake_dag Pages: 1 -->

<svg
   xmlns:dc="http://purl.org/dc/elements/1.1/"
   xmlns:cc="http://creativecommons.org/ns#"
   xmlns:rdf="http://www.w3.org/1999/02/22-rdf-syntax-ns#"
   xmlns:svg="http://www.w3.org/2000/svg"
   xmlns="http://www.w3.org/2000/svg"
   xmlns:sodipodi="http://sodipodi.sourceforge.net/DTD/sodipodi-0.dtd"
   xmlns:inkscape="http://www.inkscape.org/namespaces/inkscape"
   width="391pt"
   height="548pt"
   viewBox="0.00 0.00 390.50 548.00"
   version="1.1"
   id="svg170"
   sodipodi:docname="dag3.svg"
   inkscape:version="0.92.3 (2405546, 2018-03-11)">
  <metadata
     id="metadata176">
    <rdf:RDF>
      <cc:Work
         rdf:about="">
        <dc:format>image/svg+xml</dc:format>
        <dc:type
           rdf:resource="http://purl.org/dc/dcmitype/StillImage" />
      </cc:Work>
    </rdf:RDF>
  </metadata>
  <defs
     id="defs174" />
  <sodipodi:namedview
     pagecolor="#ffffff"
     bordercolor="#666666"
     borderopacity="1"
     objecttolerance="10"
     gridtolerance="10"
     guidetolerance="10"
     inkscape:pageopacity="0"
     inkscape:pageshadow="2"
     inkscape:window-width="1920"
     inkscape:window-height="891"
     id="namedview172"
     showgrid="false"
     inkscape:zoom="1"
     inkscape:cx="489.14145"
     inkscape:cy="420.37987"
     inkscape:window-x="0"
     inkscape:window-y="28"
     inkscape:window-maximized="1"
     inkscape:current-layer="graph0" />
  <g
     id="graph0"
     class="graph"
     transform="scale(1 1) rotate(0) translate(4 544)">
    <title
       id="title2">snakemake_dag</title>
    <polygon
       points="386.5,-544 386.5,4 -4,4 -4,-544 "
       id="polygon4"
       transform="matrix(1.1854817,0,0,1.321344,-35.473371,174.81117)"
       style="fill:#ffffff;stroke:none" />
    <!-- 0 -->
    <g
       id="node1"
       class="node">
      <title
         id="title6">0</title>
      <path
         d="M154,-36C154,-36 105,-36 105,-36 99,-36 93,-30 93,-24 93,-24 93,-12 93,-12 93,-6 99,-0 105,-0 105,-0 154,-0 154,-0 160,-0 166,-6 166,-12 166,-12 166,-24 166,-24 166,-30 160,-36 154,-36"
         id="path8"
         stroke-dasharray="5,2"
         stroke-width="2"
         stroke="#d8a456"
         fill="none" />
      <text
         x="129.5"
         y="-15.5"
         font-size="10.00"
         id="text10"
         text-anchor="middle"
         font-family="sans">bam_to_sam</text>
    </g>
    <!-- 1 -->
    <g
       id="node2"
       class="node">
      <title
         id="title13">1</title>
      <path
         d="M182.5,-180C182.5,-180 76.5,-180 76.5,-180 70.5,-180 64.5,-174 64.5,-168 64.5,-168 64.5,-156 64.5,-156 64.5,-150 70.5,-144 76.5,-144 76.5,-144 182.5,-144 182.5,-144 188.5,-144 194.5,-150 194.5,-156 194.5,-156 194.5,-168 194.5,-168 194.5,-174 188.5,-180 182.5,-180"
         id="path15"
         stroke-dasharray="5,2"
         stroke-width="2"
         stroke="#56d8c9"
         fill="none" />
      <text
         x="129.5"
         y="-159.5"
         font-size="10.00"
         id="text17"
         text-anchor="middle"
         font-family="sans">remove_duplicates_picard</text>
    </g>
    <!-- 1&#45;&gt;0 -->
    <g
       id="edge1"
       class="edge">
      <title
         id="title20">1-&gt;0</title>
      <path
         d="M122.434,-143.665C118.662,-133.47 114.412,-120.22 112.5,-108 110.027,-92.1923 110.027,-87.8077 112.5,-72 113.859,-63.3122 116.4,-54.1039 119.111,-45.843"
         id="path22"
         stroke-width="2"
         stroke="grey"
         fill="none" />
      <polygon
         points="122.439,-46.9297 122.434,-36.3349 115.831,-44.6203 122.439,-46.9297"
         id="polygon24"
         stroke-width="2"
         stroke="grey"
         fill="grey" />
    </g>
    <!-- 2 -->
    <g
       id="node3"
       class="node">
      <title
         id="title27">2</title>
      <path
         d="M197,-108C197,-108 134,-108 134,-108 128,-108 122,-102 122,-96 122,-96 122,-84 122,-84 122,-78 128,-72 134,-72 134,-72 197,-72 197,-72 203,-72 209,-78 209,-84 209,-84 209,-96 209,-96 209,-102 203,-108 197,-108"
         id="path29"
         stroke-dasharray="5,2"
         stroke-width="2"
         stroke="#78d856"
         fill="none" />
      <text
         x="165.5"
         y="-87.5"
         font-size="10.00"
         id="text31"
         text-anchor="middle"
         font-family="sans">index_final_bam</text>
    </g>
    <!-- 1&#45;&gt;2 -->
    <g
       id="edge4"
       class="edge">
      <title
         id="title34">1-&gt;2</title>
      <path
         d="M138.399,-143.697C142.497,-135.728 147.449,-126.1 151.993,-117.264"
         id="path36"
         stroke-width="2"
         stroke="grey"
         fill="none" />
      <polygon
         points="155.242,-118.598 156.703,-108.104 149.017,-115.396 155.242,-118.598"
         id="polygon38"
         stroke-width="2"
         stroke="grey"
         fill="grey" />
    </g>
    <!-- 2&#45;&gt;0 -->
    <g
       id="edge2"
       class="edge">
      <title
         id="title41">2-&gt;0</title>
      <path
         d="M156.601,-71.6966C152.503,-63.7284 147.551,-54.0995 143.007,-45.2641"
         id="path43"
         stroke-width="2"
         stroke="grey"
         fill="none" />
      <polygon
         points="145.983,-43.3965 138.297,-36.1043 139.758,-46.598 145.983,-43.3965"
         id="polygon45"
         stroke-width="2"
         stroke="grey"
         fill="grey" />
    </g>
    <!-- 3 -->
    <g
       id="node4"
       class="node">
      <title
         id="title48">3</title>
      <path
         d="M170,-252C170,-252 89,-252 89,-252 83,-252 77,-246 77,-240 77,-240 77,-228 77,-228 77,-222 83,-216 89,-216 89,-216 170,-216 170,-216 176,-216 182,-222 182,-228 182,-228 182,-240 182,-240 182,-246 176,-252 170,-252"
         id="path50"
         stroke-dasharray="5,2"
         stroke-width="2"
         stroke="#56c9d8"
         fill="none" />
      <text
         x="129.5"
         y="-231.5"
         font-size="10.00"
         id="text52"
         text-anchor="middle"
         font-family="sans">sam_to_sorted_bam</text>
    </g>
    <!-- 3&#45;&gt;1 -->
    <g
       id="edge3"
       class="edge">
      <title
         id="title55">3-&gt;1</title>
      <path
         d="M129.5,-215.697C129.5,-207.983 129.5,-198.712 129.5,-190.112"
         id="path57"
         stroke-width="2"
         stroke="grey"
         fill="none" />
      <polygon
         points="133,-190.104 129.5,-180.104 126,-190.104 133,-190.104"
         id="polygon59"
         stroke-width="2"
         stroke="grey"
         fill="grey" />
    </g>
    <!-- 4 -->
    <g
       id="node5"
       class="node">
      <title
         id="title62">4</title>
      <path
         d="M160,-324C160,-324 99,-324 99,-324 93,-324 87,-318 87,-312 87,-312 87,-300 87,-300 87,-294 93,-288 99,-288 99,-288 160,-288 160,-288 166,-288 172,-294 172,-300 172,-300 172,-312 172,-312 172,-318 166,-324 160,-324"
         id="path64"
         stroke-dasharray="5,2"
         stroke-width="2"
         stroke="#56d87b"
         fill="none" />
      <text
         x="129.5"
         y="-303.5"
         font-size="10.00"
         id="text66"
         text-anchor="middle"
         font-family="sans">hisat2_mapping</text>
    </g>
    <!-- 4&#45;&gt;3 -->
    <g
       id="edge5"
       class="edge">
      <title
         id="title69">4-&gt;3</title>
      <path
         d="M129.5,-287.697C129.5,-279.983 129.5,-270.712 129.5,-262.112"
         id="path71"
         stroke-width="2"
         stroke="grey"
         fill="none" />
      <polygon
         points="133,-262.104 129.5,-252.104 126,-262.104 133,-262.104"
         id="polygon73"
         stroke-width="2"
         stroke="grey"
         fill="grey" />
    </g>
    <!-- 5 -->
    <g
       id="node6"
       class="node">
      <title
         id="title76">5</title>
      <path
         d="M87,-396C87,-396 40,-396 40,-396 34,-396 28,-390 28,-384 28,-384 28,-372 28,-372 28,-366 34,-360 40,-360 40,-360 87,-360 87,-360 93,-360 99,-366 99,-372 99,-372 99,-384 99,-384 99,-390 93,-396 87,-396"
         id="path78"
         stroke-dasharray="5,2"
         stroke-width="2"
         stroke="#9fd856"
         fill="none" />
      <text
         x="63.5"
         y="-375.5"
         font-size="10.00"
         id="text80"
         text-anchor="middle"
         font-family="sans">trimmomatic</text>
    </g>
    <!-- 5&#45;&gt;4 -->
    <g
       id="edge6"
       class="edge">
      <title
         id="title83">5-&gt;4</title>
      <path
         d="M79.8146,-359.697C87.807,-351.22 97.5715,-340.864 106.322,-331.583"
         id="path85"
         stroke-width="2"
         stroke="grey"
         fill="none" />
      <polygon
         points="109.059,-333.781 113.373,-324.104 103.966,-328.979 109.059,-333.781"
         id="polygon87"
         stroke-width="2"
         stroke="grey"
         fill="grey" />
    </g>
    <!-- 6 -->
    <g
       id="node7"
       class="node">
      <title
         id="title90">6</title>
      <path
         d="M198,-396C198,-396 151,-396 151,-396 145,-396 139,-390 139,-384 139,-384 139,-372 139,-372 139,-366 145,-360 151,-360 151,-360 198,-360 198,-360 204,-360 210,-366 210,-372 210,-372 210,-384 210,-384 210,-390 204,-396 198,-396"
         id="path92"
         stroke-dasharray="5,2"
         stroke-width="2"
         stroke="#56a2d8"
         fill="none" />
      <text
         x="174.5"
         y="-375.5"
         font-size="10.00"
         id="text94"
         text-anchor="middle"
         font-family="sans">hisat2_index</text>
    </g>
    <!-- 6&#45;&gt;4 -->
    <g
       id="edge7"
       class="edge">
      <title
         id="title97">6-&gt;4</title>
      <path
         d="M163.376,-359.697C158.145,-351.559 151.8,-341.689 146.022,-332.701"
         id="path99"
         stroke-width="2"
         stroke="grey"
         fill="none" />
      <polygon
         points="148.847,-330.623 140.496,-324.104 142.959,-334.409 148.847,-330.623"
         id="polygon101"
         stroke-width="2"
         stroke="grey"
         fill="grey" />
    </g>
    <!-- 7 -->
    <g
       id="node8"
       class="node">
      <title
         id="title104">7</title>
      <path
         d="M73,-468C73,-468 12,-468 12,-468 6,-468 0,-462 0,-456 0,-456 0,-444 0,-444 0,-438 6,-432 12,-432 12,-432 73,-432 73,-432 79,-432 85,-438 85,-444 85,-444 85,-456 85,-456 85,-462 79,-468 73,-468"
         id="path106"
         stroke-dasharray="5,2"
         stroke-width="2"
         stroke="#59d856"
         fill="none" />
      <text
         x="40.378681"
         y="-447.16638"
         font-size="10.00"
         id="text108"
         style="font-size:10px;font-family:sans;text-anchor:middle">cutadapt</text>
      <path
         inkscape:connector-curvature="0"
         style="fill:none;stroke:#59d856;stroke-width:2;stroke-dasharray:5.00000011, 2.00000004"
         d="m 72.000013,-536.375 c 0,0 -60.999997,0 -60.999997,0 -5.9999996,0 -11.99999962,6 -11.99999962,12 0,0 0,12 0,12 0,6 6.00000002,12 11.99999962,12 0,0 60.999997,0 60.999997,0 5.999998,0 11.999998,-6 11.999998,-12 0,0 0,-12 0,-12 0,-6 -6,-12 -11.999998,-12"
         id="path106-9" />
    </g>
    <!-- 7&#45;&gt;5 -->
    <g
       id="edge8"
       class="edge">
      <title
         id="title113">7-&gt;5</title>
      <path
         d="M47.691,-431.697C50.0306,-423.898 52.8474,-414.509 55.4513,-405.829"
         id="path115"
         stroke-width="2"
         stroke="grey"
         fill="none" />
      <polygon
         points="58.8475,-406.688 58.3687,-396.104 52.1428,-404.677 58.8475,-406.688"
         id="polygon117"
         stroke-width="2"
         stroke="grey"
         fill="grey" />
    </g>
    <!-- 8 -->
    <g
       id="node9"
       class="node">
      <title
         id="title120">8</title>
      <path
         d="M234,-468C234,-468 115,-468 115,-468 109,-468 103,-462 103,-456 103,-456 103,-444 103,-444 103,-438 109,-432 115,-432 115,-432 234,-432 234,-432 240,-432 246,-438 246,-444 246,-444 246,-456 246,-456 246,-462 240,-468 234,-468"
         id="path122"
         stroke-dasharray="5,2"
         stroke-width="2"
         stroke="#c6d856"
         fill="none" />
      <text
         x="174.5"
         y="-447.5"
         font-size="10.00"
         id="text124"
         text-anchor="middle"
         font-family="sans">extract_genome_splice_sites</text>
    </g>
    <!-- 8&#45;&gt;6 -->
    <g
       id="edge9"
       class="edge">
      <title
         id="title127">8-&gt;6</title>
      <path
         d="M174.5,-431.697C174.5,-423.983 174.5,-414.712 174.5,-406.112"
         id="path129"
         stroke-width="2"
         stroke="grey"
         fill="none" />
      <polygon
         points="178,-406.104 174.5,-396.104 171,-406.104 178,-406.104"
         id="polygon131"
         stroke-width="2"
         stroke="grey"
         fill="grey" />
    </g>
    <!-- 9 -->
    <g
       id="node10"
       class="node">
      <title
         id="title134">9</title>
      <path
         d="M370.5,-468C370.5,-468 276.5,-468 276.5,-468 270.5,-468 264.5,-462 264.5,-456 264.5,-456 264.5,-444 264.5,-444 264.5,-438 270.5,-432 276.5,-432 276.5,-432 370.5,-432 370.5,-432 376.5,-432 382.5,-438 382.5,-444 382.5,-444 382.5,-456 382.5,-456 382.5,-462 376.5,-468 370.5,-468"
         id="path136"
         stroke-dasharray="5,2"
         stroke-width="2"
         stroke="#567bd8"
         fill="none" />
      <text
         x="323.5"
         y="-447.5"
         font-size="10.00"
         id="text138"
         text-anchor="middle"
         font-family="sans">extract_genome_exons</text>
    </g>
    <!-- 9&#45;&gt;6 -->
    <g
       id="edge10"
       class="edge">
      <title
         id="title141">9-&gt;6</title>
      <path
         d="M287.05,-431.876C266.637,-422.286 241.014,-410.248 219.374,-400.082"
         id="path143"
         stroke-width="2"
         stroke="grey"
         fill="none" />
      <polygon
         points="220.598,-396.79 210.059,-395.706 217.622,-403.126 220.598,-396.79"
         id="polygon145"
         stroke-width="2"
         stroke="grey"
         fill="grey" />
    </g>
    <!-- 10 -->
    <g
       id="node11"
       class="node">
      <title
         id="title148">10</title>
      <path
         d="M287,-540C287,-540 210,-540 210,-540 204,-540 198,-534 198,-528 198,-528 198,-516 198,-516 198,-510 204,-504 210,-504 210,-504 287,-504 287,-504 293,-504 299,-510 299,-516 299,-516 299,-528 299,-528 299,-534 293,-540 287,-540"
         id="path150"
         stroke-dasharray="5,2"
         stroke-width="2"
         stroke="#56d8a2"
         fill="none" />
      <text
         x="248.5"
         y="-519.5"
         font-size="10.00"
         id="text152"
         text-anchor="middle"
         font-family="sans">convert_gff3_to_gtf</text>
    </g>
    <!-- 10&#45;&gt;8 -->
    <g
       id="edge11"
       class="edge">
      <title
         id="title155">10-&gt;8</title>
      <path
         d="M230.208,-503.697C221.067,-495.05 209.86,-484.449 199.9,-475.027"
         id="path157"
         stroke-width="2"
         stroke="grey"
         fill="none" />
      <polygon
         points="202.252,-472.434 192.582,-468.104 197.441,-477.519 202.252,-472.434"
         id="polygon159"
         stroke-width="2"
         stroke="grey"
         fill="grey" />
    </g>
    <!-- 10&#45;&gt;9 -->
    <g
       id="edge12"
       class="edge">
      <title
         id="title162">10-&gt;9</title>
      <path
         d="M267.039,-503.697C276.303,-495.05 287.662,-484.449 297.757,-475.027"
         id="path164"
         stroke-width="2"
         stroke="grey"
         fill="none" />
      <polygon
         points="300.251,-477.486 305.174,-468.104 295.475,-472.369 300.251,-477.486"
         id="polygon166"
         stroke-width="2"
         stroke="grey"
         fill="grey" />
    </g>
    <g
       id="graph0-3"
       class="graph"
       transform="translate(47.798418,145.63778)">
      <title
         id="title4108">snakemake_dag</title>
      <polygon
         style="fill:#ffffff;stroke:none"
         points="-4,4 -4,-112 170,-112 170,4 "
         id="polygon4110" />
      <!-- 0 -->
      <g
         id="node1-6"
         class="node">
        <title
           id="title4112">0</title>
        <path
           style="fill:none;stroke:#d8a456;stroke-width:2;stroke-dasharray:5, 2"
           inkscape:connector-curvature="0"
           d="m 154,-36 c 0,0 -142,0 -142,0 -6,0 -12,6 -12,12 0,0 0,12 0,12 0,6 6,12 12,12 0,0 142,0 142,0 6,0 12,-6 12,-12 0,0 0,-12 0,-12 0,-6 -6,-12 -12,-12"
           id="path4114" />
        <text
           style="font-size:10px;font-family:sans;text-anchor:middle"
           x="83"
           y="-15.5"
           font-size="10.00"
           id="text4116">Assign_Gene_and_Transcript_IDs</text>
      </g>
      <!-- 1 -->
      <g
         id="node2-7"
         class="node">
        <title
           id="title4119">1</title>
        <path
           style="fill:none;stroke:#d87d56;stroke-width:2;stroke-dasharray:5, 2"
           inkscape:connector-curvature="0"
           d="m 128.5,-108 c 0,0 -91,0 -91,0 -6,0 -12,6 -12,12 0,0 0,12 0,12 0,6 6,12 12,12 0,0 91,0 91,0 6,0 12,-6 12,-12 0,0 0,-12 0,-12 0,-6 -6,-12 -12,-12"
           id="path4121" />
        <text
           style="font-size:10px;font-family:sans;text-anchor:middle"
           x="83"
           y="-87.5"
           font-size="10.00"
           id="text4123">Identify_Mu_insertions</text>
      </g>
      <!-- 1&#45;&gt;0 -->
      <g
         id="edge1-5"
         class="edge">
        <title
           id="title4126">1-&gt;0</title>
        <path
           style="fill:none;stroke:#808080;stroke-width:2"
           inkscape:connector-curvature="0"
           d="m 83,-71.6966 c 0,7.7139 0,16.9841 0,25.5842"
           id="path4128" />
        <polygon
           style="fill:#808080;stroke:#808080;stroke-width:2"
           points="79.5001,-46.1044 86.5001,-46.1043 83,-36.1043 "
           id="polygon4130" />
      </g>
    </g>
    <g
       transform="translate(48.003549,71.779939)"
       id="edge1-5-3"
       class="edge">
      <title
         id="title4126-5">1-&gt;0</title>
      <path
         style="fill:none;stroke:#808080;stroke-width:2"
         inkscape:connector-curvature="0"
         d="m 83,-71.6966 c 0,7.7139 0,16.9841 0,25.5842"
         id="path4128-6" />
      <polygon
         style="fill:#808080;stroke:#808080;stroke-width:2"
         points="83,-36.1043 79.5001,-46.1044 86.5001,-46.1043 "
         id="polygon4130-2" />
    </g>
    <text
       x="40.567883"
       y="-522.88037"
       font-size="10.00"
       id="text110"
       style="font-size:10px;font-family:sans;text-anchor:middle;stroke-width:1">samples:</text>
    <text
       x="40.61512"
       y="-510.04788"
       font-size="10.00"
       id="text110-1"
       style="font-size:10px;font-family:sans;text-anchor:middle;stroke-width:1">e.g.: Row_01</text>
    <g
       transform="matrix(1.0278037,0,0,0.84938809,-138.96302,-134.02486)"
       id="edge9-2"
       class="edge">
      <title
         id="title127-7">8-&gt;6</title>
      <path
         style="fill:none;stroke:#808080;stroke-width:2"
         inkscape:connector-curvature="0"
         d="m 174.5,-431.697 c 0,7.714 0,16.985 0,25.585"
         id="path129-0" />
      <polygon
         style="fill:#808080;stroke:#808080;stroke-width:2"
         points="171,-406.104 178,-406.104 174.5,-396.104 "
         id="polygon131-9" />
    </g>
  </g>
</svg>
