<?xml version="1.0" encoding="UTF-8" standalone="no"?>
<!DOCTYPE svg PUBLIC "-//W3C//DTD SVG 1.1//EN"
 "http://www.w3.org/Graphics/SVG/1.1/DTD/svg11.dtd">
<!-- Generated by graphviz version 2.38.0 (20140413.2041)
 -->
<!-- Title: snakemake_dag Pages: 1 -->
<svg width="287pt" height="620pt"
 viewBox="0.00 0.00 286.50 620.00" xmlns="http://www.w3.org/2000/svg" xmlns:xlink="http://www.w3.org/1999/xlink">
<g id="graph0" class="graph" transform="scale(1 1) rotate(0) translate(4 616)">
<title>snakemake_dag</title>
<polygon fill="white" stroke="none" points="-4,4 -4,-616 282.5,-616 282.5,4 -4,4"/>
<!-- 0 -->
<g id="node1" class="node"><title>0</title>
<path fill="none" stroke="#56d8d8" stroke-width="2" d="M169,-36C169,-36 139,-36 139,-36 133,-36 127,-30 127,-24 127,-24 127,-12 127,-12 127,-6 133,-0 139,-0 139,-0 169,-0 169,-0 175,-0 181,-6 181,-12 181,-12 181,-24 181,-24 181,-30 175,-36 169,-36"/>
<text text-anchor="middle" x="154" y="-15.5" font-family="sans" font-size="10.00">all</text>
</g>
<!-- 1 -->
<g id="node2" class="node"><title>1</title>
<path fill="none" stroke="#d88556" stroke-width="2" d="M230,-108C230,-108 78,-108 78,-108 72,-108 66,-102 66,-96 66,-96 66,-84 66,-84 66,-78 72,-72 78,-72 78,-72 230,-72 230,-72 236,-72 242,-78 242,-84 242,-84 242,-96 242,-96 242,-102 236,-108 230,-108"/>
<text text-anchor="middle" x="154" y="-87.5" font-family="sans" font-size="10.00">Assign_Gene_and_Transcript_IDs</text>
</g>
<!-- 1&#45;&gt;0 -->
<g id="edge1" class="edge"><title>1&#45;&gt;0</title>
<path fill="none" stroke="grey" stroke-width="2" d="M154,-71.6966C154,-63.9827 154,-54.7125 154,-46.1124"/>
<polygon fill="grey" stroke="grey" stroke-width="2" points="157.5,-46.1043 154,-36.1043 150.5,-46.1044 157.5,-46.1043"/>
</g>
<!-- 2 -->
<g id="node3" class="node"><title>2</title>
<path fill="none" stroke="#afd856" stroke-width="2" d="M137.5,-180C137.5,-180 34.5,-180 34.5,-180 28.5,-180 22.5,-174 22.5,-168 22.5,-168 22.5,-156 22.5,-156 22.5,-150 28.5,-144 34.5,-144 34.5,-144 137.5,-144 137.5,-144 143.5,-144 149.5,-150 149.5,-156 149.5,-156 149.5,-168 149.5,-168 149.5,-174 143.5,-180 137.5,-180"/>
<text text-anchor="middle" x="86" y="-159.5" font-family="sans" font-size="10.00">Identify_Mu_insertions</text>
</g>
<!-- 2&#45;&gt;1 -->
<g id="edge2" class="edge"><title>2&#45;&gt;1</title>
<path fill="none" stroke="grey" stroke-width="2" d="M102.809,-143.697C111.126,-135.135 121.305,-124.656 130.39,-115.304"/>
<polygon fill="grey" stroke="grey" stroke-width="2" points="132.927,-117.716 137.384,-108.104 127.906,-112.838 132.927,-117.716"/>
</g>
<!-- 3 -->
<g id="node4" class="node"><title>3</title>
<path fill="none" stroke="#80d856" stroke-width="2" d="M266.5,-180C266.5,-180 179.5,-180 179.5,-180 173.5,-180 167.5,-174 167.5,-168 167.5,-168 167.5,-156 167.5,-156 167.5,-150 173.5,-144 179.5,-144 179.5,-144 266.5,-144 266.5,-144 272.5,-144 278.5,-150 278.5,-156 278.5,-156 278.5,-168 278.5,-168 278.5,-174 272.5,-180 266.5,-180"/>
<text text-anchor="middle" x="223" y="-159.5" font-family="sans" font-size="10.00">convert_gff3_to_gtf</text>
</g>
<!-- 3&#45;&gt;1 -->
<g id="edge3" class="edge"><title>3&#45;&gt;1</title>
<path fill="none" stroke="grey" stroke-width="2" d="M205.944,-143.697C197.505,-135.135 187.175,-124.656 177.957,-115.304"/>
<polygon fill="grey" stroke="grey" stroke-width="2" points="180.373,-112.769 170.86,-108.104 175.387,-117.683 180.373,-112.769"/>
</g>
<!-- 4 -->
<g id="node5" class="node"><title>4</title>
<path fill="none" stroke="#56d882" stroke-width="2" d="M151.5,-252C151.5,-252 20.5,-252 20.5,-252 14.5,-252 8.5,-246 8.5,-240 8.5,-240 8.5,-228 8.5,-228 8.5,-222 14.5,-216 20.5,-216 20.5,-216 151.5,-216 151.5,-216 157.5,-216 163.5,-222 163.5,-228 163.5,-228 163.5,-240 163.5,-240 163.5,-246 157.5,-252 151.5,-252"/>
<text text-anchor="middle" x="86" y="-231.5" font-family="sans" font-size="10.00">prepare_MuSeq_table_folder</text>
</g>
<!-- 4&#45;&gt;2 -->
<g id="edge4" class="edge"><title>4&#45;&gt;2</title>
<path fill="none" stroke="grey" stroke-width="2" d="M86,-215.697C86,-207.983 86,-198.712 86,-190.112"/>
<polygon fill="grey" stroke="grey" stroke-width="2" points="89.5001,-190.104 86,-180.104 82.5001,-190.104 89.5001,-190.104"/>
</g>
<!-- 5 -->
<g id="node6" class="node"><title>5</title>
<path fill="none" stroke="#5682d8" stroke-width="2" d="M114,-324C114,-324 58,-324 58,-324 52,-324 46,-318 46,-312 46,-312 46,-300 46,-300 46,-294 52,-288 58,-288 58,-288 114,-288 114,-288 120,-288 126,-294 126,-300 126,-300 126,-312 126,-312 126,-318 120,-324 114,-324"/>
<text text-anchor="middle" x="86" y="-303.5" font-family="sans" font-size="10.00">bam_to_sam</text>
</g>
<!-- 5&#45;&gt;4 -->
<g id="edge5" class="edge"><title>5&#45;&gt;4</title>
<path fill="none" stroke="grey" stroke-width="2" d="M86,-287.697C86,-279.983 86,-270.712 86,-262.112"/>
<polygon fill="grey" stroke="grey" stroke-width="2" points="89.5001,-262.104 86,-252.104 82.5001,-262.104 89.5001,-262.104"/>
</g>
<!-- 6 -->
<g id="node7" class="node"><title>6</title>
<path fill="none" stroke="#d8ac56" stroke-width="2" d="M146.5,-396C146.5,-396 25.5,-396 25.5,-396 19.5,-396 13.5,-390 13.5,-384 13.5,-384 13.5,-372 13.5,-372 13.5,-366 19.5,-360 25.5,-360 25.5,-360 146.5,-360 146.5,-360 152.5,-360 158.5,-366 158.5,-372 158.5,-372 158.5,-384 158.5,-384 158.5,-390 152.5,-396 146.5,-396"/>
<text text-anchor="middle" x="86" y="-375.5" font-family="sans" font-size="10.00">remove_duplicates_picard</text>
</g>
<!-- 6&#45;&gt;5 -->
<g id="edge6" class="edge"><title>6&#45;&gt;5</title>
<path fill="none" stroke="grey" stroke-width="2" d="M86,-359.697C86,-351.983 86,-342.712 86,-334.112"/>
<polygon fill="grey" stroke="grey" stroke-width="2" points="89.5001,-334.104 86,-324.104 82.5001,-334.104 89.5001,-334.104"/>
</g>
<!-- 7 -->
<g id="node8" class="node"><title>7</title>
<path fill="none" stroke="#59d856" stroke-width="2" d="M139,-468C139,-468 33,-468 33,-468 27,-468 21,-462 21,-456 21,-456 21,-444 21,-444 21,-438 27,-432 33,-432 33,-432 139,-432 139,-432 145,-432 151,-438 151,-444 151,-444 151,-456 151,-456 151,-462 145,-468 139,-468"/>
<text text-anchor="middle" x="86" y="-447.5" font-family="sans" font-size="10.00">bwa_mem_and_sorting</text>
</g>
<!-- 7&#45;&gt;6 -->
<g id="edge7" class="edge"><title>7&#45;&gt;6</title>
<path fill="none" stroke="grey" stroke-width="2" d="M86,-431.697C86,-423.983 86,-414.712 86,-406.112"/>
<polygon fill="grey" stroke="grey" stroke-width="2" points="89.5001,-406.104 86,-396.104 82.5001,-406.104 89.5001,-406.104"/>
</g>
<!-- 8 -->
<g id="node9" class="node"><title>8</title>
<path fill="none" stroke="#56d8a9" stroke-width="2" d="M68,-540C68,-540 12,-540 12,-540 6,-540 0,-534 0,-528 0,-528 0,-516 0,-516 0,-510 6,-504 12,-504 12,-504 68,-504 68,-504 74,-504 80,-510 80,-516 80,-516 80,-528 80,-528 80,-534 74,-540 68,-540"/>
<text text-anchor="middle" x="40" y="-519.5" font-family="sans" font-size="10.00">trimmomatic</text>
</g>
<!-- 8&#45;&gt;7 -->
<g id="edge8" class="edge"><title>8&#45;&gt;7</title>
<path fill="none" stroke="grey" stroke-width="2" d="M51.3708,-503.697C56.7185,-495.559 63.2043,-485.689 69.1106,-476.701"/>
<polygon fill="grey" stroke="grey" stroke-width="2" points="72.1932,-478.384 74.76,-468.104 66.3432,-474.539 72.1932,-478.384"/>
</g>
<!-- 9 -->
<g id="node10" class="node"><title>9</title>
<path fill="none" stroke="#56a9d8" stroke-width="2" d="M155.5,-540C155.5,-540 110.5,-540 110.5,-540 104.5,-540 98.5,-534 98.5,-528 98.5,-528 98.5,-516 98.5,-516 98.5,-510 104.5,-504 110.5,-504 110.5,-504 155.5,-504 155.5,-504 161.5,-504 167.5,-510 167.5,-516 167.5,-516 167.5,-528 167.5,-528 167.5,-534 161.5,-540 155.5,-540"/>
<text text-anchor="middle" x="133" y="-519.5" font-family="sans" font-size="10.00">bwa_index</text>
</g>
<!-- 9&#45;&gt;7 -->
<g id="edge9" class="edge"><title>9&#45;&gt;7</title>
<path fill="none" stroke="grey" stroke-width="2" d="M121.382,-503.697C115.861,-495.474 109.153,-485.483 103.068,-476.421"/>
<polygon fill="grey" stroke="grey" stroke-width="2" points="105.965,-474.456 97.4843,-468.104 100.153,-478.358 105.965,-474.456"/>
</g>
<!-- 10 -->
<g id="node11" class="node"><title>10</title>
<path fill="none" stroke="#d85656" stroke-width="2" d="M57.5,-612C57.5,-612 22.5,-612 22.5,-612 16.5,-612 10.5,-606 10.5,-600 10.5,-600 10.5,-588 10.5,-588 10.5,-582 16.5,-576 22.5,-576 22.5,-576 57.5,-576 57.5,-576 63.5,-576 69.5,-582 69.5,-588 69.5,-588 69.5,-600 69.5,-600 69.5,-606 63.5,-612 57.5,-612"/>
<text text-anchor="middle" x="40" y="-591.5" font-family="sans" font-size="10.00">cutadapt</text>
</g>
<!-- 10&#45;&gt;8 -->
<g id="edge10" class="edge"><title>10&#45;&gt;8</title>
<path fill="none" stroke="grey" stroke-width="2" d="M40,-575.697C40,-567.983 40,-558.712 40,-550.112"/>
<polygon fill="grey" stroke="grey" stroke-width="2" points="43.5001,-550.104 40,-540.104 36.5001,-550.104 43.5001,-550.104"/>
</g>
</g>
</svg>
