<?xml version="1.0" encoding="UTF-8" standalone="no"?>
<!DOCTYPE svg PUBLIC "-//W3C//DTD SVG 1.1//EN"
 "http://www.w3.org/Graphics/SVG/1.1/DTD/svg11.dtd">
<!-- Generated by graphviz version 2.38.0 (20140413.2041)
 -->
<!-- Title: snakemake_dag Pages: 1 -->
<svg width="485pt" height="692pt"
 viewBox="0.00 0.00 485.00 692.00" xmlns="http://www.w3.org/2000/svg" xmlns:xlink="http://www.w3.org/1999/xlink">
<g id="graph0" class="graph" transform="scale(1 1) rotate(0) translate(4 688)">
<title>snakemake_dag</title>
<polygon fill="white" stroke="none" points="-4,4 -4,-688 481,-688 481,4 -4,4"/>
<!-- 0 -->
<g id="node1" class="node"><title>0</title>
<path fill="none" stroke="#56d8d0" stroke-width="2" d="M128,-36C128,-36 98,-36 98,-36 92,-36 86,-30 86,-24 86,-24 86,-12 86,-12 86,-6 92,-0 98,-0 98,-0 128,-0 128,-0 134,-0 140,-6 140,-12 140,-12 140,-24 140,-24 140,-30 134,-36 128,-36"/>
<text text-anchor="middle" x="113" y="-15.5" font-family="sans" font-size="10.00">all</text>
</g>
<!-- 1 -->
<g id="node2" class="node"><title>1</title>
<path fill="none" stroke="#569ad8" stroke-width="2" d="M42,-396C42,-396 12,-396 12,-396 6,-396 0,-390 0,-384 0,-384 0,-372 0,-372 0,-366 6,-360 12,-360 12,-360 42,-360 42,-360 48,-360 54,-366 54,-372 54,-372 54,-384 54,-384 54,-390 48,-396 42,-396"/>
<text text-anchor="middle" x="27" y="-375.5" font-family="sans" font-size="10.00">fastqc</text>
</g>
<!-- 1&#45;&gt;0 -->
<g id="edge5" class="edge"><title>1&#45;&gt;0</title>
<path fill="none" stroke="grey" stroke-width="2" d="M27.9878,-359.958C29.445,-333.308 32,-280.143 32,-235 32,-235 32,-235 32,-161 32,-114.96 64.5242,-70.2501 88.3536,-43.6714"/>
<polygon fill="grey" stroke="grey" stroke-width="2" points="91.2057,-45.7423 95.4242,-36.0235 86.0657,-40.9904 91.2057,-45.7423"/>
</g>
<!-- 2 -->
<g id="node3" class="node"><title>2</title>
<path fill="none" stroke="#56d86b" stroke-width="2" d="M116,-324C116,-324 86,-324 86,-324 80,-324 74,-318 74,-312 74,-312 74,-300 74,-300 74,-294 80,-288 86,-288 86,-288 116,-288 116,-288 122,-288 128,-294 128,-300 128,-300 128,-312 128,-312 128,-318 122,-324 116,-324"/>
<text text-anchor="middle" x="101" y="-303.5" font-family="sans" font-size="10.00">multiqc</text>
</g>
<!-- 1&#45;&gt;2 -->
<g id="edge9" class="edge"><title>1&#45;&gt;2</title>
<path fill="none" stroke="grey" stroke-width="2" d="M45.2921,-359.697C54.4326,-351.05 65.6401,-340.449 75.6,-331.027"/>
<polygon fill="grey" stroke="grey" stroke-width="2" points="78.0588,-333.519 82.9183,-324.104 73.2484,-328.434 78.0588,-333.519"/>
</g>
<!-- 2&#45;&gt;0 -->
<g id="edge2" class="edge"><title>2&#45;&gt;0</title>
<path fill="none" stroke="grey" stroke-width="2" d="M98.1573,-287.871C96.5844,-277.519 94.7916,-264.04 94,-252 89.1026,-177.518 101.048,-89.7982 108.164,-46.3025"/>
<polygon fill="grey" stroke="grey" stroke-width="2" points="111.651,-46.6738 109.856,-36.2321 104.747,-45.514 111.651,-46.6738"/>
</g>
<!-- 3 -->
<g id="node4" class="node"><title>3</title>
<path fill="none" stroke="#56c1d8" stroke-width="2" d="M254.5,-252C254.5,-252 115.5,-252 115.5,-252 109.5,-252 103.5,-246 103.5,-240 103.5,-240 103.5,-228 103.5,-228 103.5,-222 109.5,-216 115.5,-216 115.5,-216 254.5,-216 254.5,-216 260.5,-216 266.5,-222 266.5,-228 266.5,-228 266.5,-240 266.5,-240 266.5,-246 260.5,-252 254.5,-252"/>
<text text-anchor="middle" x="185" y="-231.5" font-family="sans" font-size="10.00">index_sorted_bams_with_dups</text>
</g>
<!-- 3&#45;&gt;0 -->
<g id="edge4" class="edge"><title>3&#45;&gt;0</title>
<path fill="none" stroke="grey" stroke-width="2" d="M161.787,-215.916C150.884,-206.575 138.812,-194.051 132,-180 111.15,-136.996 109.6,-80.2062 110.92,-46.8395"/>
<polygon fill="grey" stroke="grey" stroke-width="2" points="114.435,-46.6424 111.454,-36.4755 107.444,-46.2822 114.435,-46.6424"/>
</g>
<!-- 4 -->
<g id="node5" class="node"><title>4</title>
<path fill="none" stroke="#afd856" stroke-width="2" d="M308.5,-180C308.5,-180 153.5,-180 153.5,-180 147.5,-180 141.5,-174 141.5,-168 141.5,-168 141.5,-156 141.5,-156 141.5,-150 147.5,-144 153.5,-144 153.5,-144 308.5,-144 308.5,-144 314.5,-144 320.5,-150 320.5,-156 320.5,-156 320.5,-168 320.5,-168 320.5,-174 314.5,-180 308.5,-180"/>
<text text-anchor="middle" x="231" y="-159.5" font-family="sans" font-size="10.00">index_sorted_bams_without_dups</text>
</g>
<!-- 4&#45;&gt;0 -->
<g id="edge1" class="edge"><title>4&#45;&gt;0</title>
<path fill="none" stroke="grey" stroke-width="2" d="M216.766,-143.871C196.124,-119.031 157.746,-72.8464 133.892,-44.1415"/>
<polygon fill="grey" stroke="grey" stroke-width="2" points="136.367,-41.6434 127.284,-36.1893 130.983,-46.1173 136.367,-41.6434"/>
</g>
<!-- 5 -->
<g id="node6" class="node"><title>5</title>
<path fill="none" stroke="#56d8a9" stroke-width="2" d="M398.5,-108C398.5,-108 287.5,-108 287.5,-108 281.5,-108 275.5,-102 275.5,-96 275.5,-96 275.5,-84 275.5,-84 275.5,-78 281.5,-72 287.5,-72 287.5,-72 398.5,-72 398.5,-72 404.5,-72 410.5,-78 410.5,-84 410.5,-84 410.5,-96 410.5,-96 410.5,-102 404.5,-108 398.5,-108"/>
<text text-anchor="middle" x="343" y="-87.5" font-family="sans" font-size="10.00">Annotation_of_Insertions</text>
</g>
<!-- 5&#45;&gt;0 -->
<g id="edge3" class="edge"><title>5&#45;&gt;0</title>
<path fill="none" stroke="grey" stroke-width="2" d="M287.03,-71.9656C244.49,-59.0186 187.165,-41.5718 150.14,-30.3036"/>
<polygon fill="grey" stroke="grey" stroke-width="2" points="150.851,-26.8614 140.265,-27.298 148.813,-33.5581 150.851,-26.8614"/>
</g>
<!-- 6 -->
<g id="node7" class="node"><title>6</title>
<path fill="none" stroke="#d89c56" stroke-width="2" d="M133.5,-684C133.5,-684 98.5,-684 98.5,-684 92.5,-684 86.5,-678 86.5,-672 86.5,-672 86.5,-660 86.5,-660 86.5,-654 92.5,-648 98.5,-648 98.5,-648 133.5,-648 133.5,-648 139.5,-648 145.5,-654 145.5,-660 145.5,-660 145.5,-672 145.5,-672 145.5,-678 139.5,-684 133.5,-684"/>
<text text-anchor="middle" x="116" y="-663.5" font-family="sans" font-size="10.00">cutadapt</text>
</g>
<!-- 6&#45;&gt;2 -->
<g id="edge6" class="edge"><title>6&#45;&gt;2</title>
<path fill="none" stroke="grey" stroke-width="2" d="M109.12,-647.829C99.1847,-621.444 82,-569.136 82,-523 82,-523 82,-523 82,-449 82,-408.86 89.5507,-362.897 95.1322,-334.405"/>
<polygon fill="grey" stroke="grey" stroke-width="2" points="98.6061,-334.883 97.1551,-324.388 91.7446,-333.498 98.6061,-334.883"/>
</g>
<!-- 7 -->
<g id="node8" class="node"><title>7</title>
<path fill="none" stroke="#d8bc56" stroke-width="2" d="M177.5,-612C177.5,-612 122.5,-612 122.5,-612 116.5,-612 110.5,-606 110.5,-600 110.5,-600 110.5,-588 110.5,-588 110.5,-582 116.5,-576 122.5,-576 122.5,-576 177.5,-576 177.5,-576 183.5,-576 189.5,-582 189.5,-588 189.5,-588 189.5,-600 189.5,-600 189.5,-606 183.5,-612 177.5,-612"/>
<text text-anchor="middle" x="150" y="-591.5" font-family="sans" font-size="10.00">trimmomatic</text>
</g>
<!-- 6&#45;&gt;7 -->
<g id="edge14" class="edge"><title>6&#45;&gt;7</title>
<path fill="none" stroke="grey" stroke-width="2" d="M124.404,-647.697C128.275,-639.728 132.952,-630.1 137.243,-621.264"/>
<polygon fill="grey" stroke="grey" stroke-width="2" points="140.471,-622.629 141.692,-612.104 134.175,-619.57 140.471,-622.629"/>
</g>
<!-- 7&#45;&gt;2 -->
<g id="edge8" class="edge"><title>7&#45;&gt;2</title>
<path fill="none" stroke="grey" stroke-width="2" d="M147.082,-575.966C138.896,-528.192 115.67,-392.623 105.671,-334.266"/>
<polygon fill="grey" stroke="grey" stroke-width="2" points="109.104,-333.572 103.965,-324.306 102.204,-334.754 109.104,-333.572"/>
</g>
<!-- 8 -->
<g id="node9" class="node"><title>8</title>
<path fill="none" stroke="#ced856" stroke-width="2" d="M224,-540C224,-540 194,-540 194,-540 188,-540 182,-534 182,-528 182,-528 182,-516 182,-516 182,-510 188,-504 194,-504 194,-504 224,-504 224,-504 230,-504 236,-510 236,-516 236,-516 236,-528 236,-528 236,-534 230,-540 224,-540"/>
<text text-anchor="middle" x="209" y="-519.5" font-family="sans" font-size="10.00">bowtie2</text>
</g>
<!-- 7&#45;&gt;8 -->
<g id="edge16" class="edge"><title>7&#45;&gt;8</title>
<path fill="none" stroke="grey" stroke-width="2" d="M164.584,-575.697C171.658,-567.305 180.283,-557.07 188.045,-547.861"/>
<polygon fill="grey" stroke="grey" stroke-width="2" points="190.815,-550.006 194.583,-540.104 185.463,-545.495 190.815,-550.006"/>
</g>
<!-- 8&#45;&gt;2 -->
<g id="edge7" class="edge"><title>8&#45;&gt;2</title>
<path fill="none" stroke="grey" stroke-width="2" d="M197.591,-503.741C191.121,-493.572 183.121,-480.322 177,-468 154.015,-421.73 157.302,-406.111 134,-360 129.356,-350.81 123.614,-341.141 118.229,-332.616"/>
<polygon fill="grey" stroke="grey" stroke-width="2" points="121.17,-330.718 112.807,-324.213 115.288,-334.513 121.17,-330.718"/>
</g>
<!-- 10 -->
<g id="node11" class="node"><title>10</title>
<path fill="none" stroke="#d87556" stroke-width="2" d="M290,-468C290,-468 198,-468 198,-468 192,-468 186,-462 186,-456 186,-456 186,-444 186,-444 186,-438 192,-432 198,-432 198,-432 290,-432 290,-432 296,-432 302,-438 302,-444 302,-444 302,-456 302,-456 302,-462 296,-468 290,-468"/>
<text text-anchor="middle" x="244" y="-447.5" font-family="sans" font-size="10.00">sam_to_sorted_bam</text>
</g>
<!-- 8&#45;&gt;10 -->
<g id="edge18" class="edge"><title>8&#45;&gt;10</title>
<path fill="none" stroke="grey" stroke-width="2" d="M217.652,-503.697C221.636,-495.728 226.45,-486.1 230.868,-477.264"/>
<polygon fill="grey" stroke="grey" stroke-width="2" points="234.106,-478.614 235.448,-468.104 227.845,-475.483 234.106,-478.614"/>
</g>
<!-- 9 -->
<g id="node10" class="node"><title>9</title>
<path fill="none" stroke="#567bd8" stroke-width="2" d="M354,-396C354,-396 236,-396 236,-396 230,-396 224,-390 224,-384 224,-384 224,-372 224,-372 224,-366 230,-360 236,-360 236,-360 354,-360 354,-360 360,-360 366,-366 366,-372 366,-372 366,-384 366,-384 366,-390 360,-396 354,-396"/>
<text text-anchor="middle" x="295" y="-375.5" font-family="sans" font-size="10.00">remove_duplicates_picard</text>
</g>
<!-- 9&#45;&gt;2 -->
<g id="edge10" class="edge"><title>9&#45;&gt;2</title>
<path fill="none" stroke="grey" stroke-width="2" d="M247.542,-359.876C213.735,-347.677 168.952,-331.519 137.829,-320.289"/>
<polygon fill="grey" stroke="grey" stroke-width="2" points="138.829,-316.929 128.235,-316.827 136.454,-323.513 138.829,-316.929"/>
</g>
<!-- 9&#45;&gt;4 -->
<g id="edge12" class="edge"><title>9&#45;&gt;4</title>
<path fill="none" stroke="grey" stroke-width="2" d="M295.95,-359.729C296.963,-329.329 296.133,-264.86 275,-216 270.611,-205.852 263.653,-196.121 256.555,-187.83"/>
<polygon fill="grey" stroke="grey" stroke-width="2" points="259.092,-185.418 249.785,-180.355 253.903,-190.117 259.092,-185.418"/>
</g>
<!-- 14 -->
<g id="node15" class="node"><title>14</title>
<path fill="none" stroke="#d85656" stroke-width="2" d="M409,-324C409,-324 353,-324 353,-324 347,-324 341,-318 341,-312 341,-312 341,-300 341,-300 341,-294 347,-288 353,-288 353,-288 409,-288 409,-288 415,-288 421,-294 421,-300 421,-300 421,-312 421,-312 421,-318 415,-324 409,-324"/>
<text text-anchor="middle" x="381" y="-303.5" font-family="sans" font-size="10.00">bam_to_sam</text>
</g>
<!-- 9&#45;&gt;14 -->
<g id="edge21" class="edge"><title>9&#45;&gt;14</title>
<path fill="none" stroke="grey" stroke-width="2" d="M316.258,-359.697C327.089,-350.881 340.418,-340.032 352.16,-330.474"/>
<polygon fill="grey" stroke="grey" stroke-width="2" points="354.44,-333.132 359.986,-324.104 350.021,-327.703 354.44,-333.132"/>
</g>
<!-- 10&#45;&gt;3 -->
<g id="edge11" class="edge"><title>10&#45;&gt;3</title>
<path fill="none" stroke="grey" stroke-width="2" d="M232.881,-431.985C226.758,-421.896 219.508,-408.646 215,-396 198.874,-350.764 190.968,-295.134 187.455,-262.517"/>
<polygon fill="grey" stroke="grey" stroke-width="2" points="190.919,-261.982 186.426,-252.387 183.954,-262.689 190.919,-261.982"/>
</g>
<!-- 10&#45;&gt;9 -->
<g id="edge17" class="edge"><title>10&#45;&gt;9</title>
<path fill="none" stroke="grey" stroke-width="2" d="M256.607,-431.697C262.597,-423.474 269.876,-413.483 276.479,-404.421"/>
<polygon fill="grey" stroke="grey" stroke-width="2" points="279.478,-406.248 282.538,-396.104 273.821,-402.126 279.478,-406.248"/>
</g>
<!-- 11 -->
<g id="node12" class="node"><title>11</title>
<path fill="none" stroke="#56d88a" stroke-width="2" d="M449,-180C449,-180 351,-180 351,-180 345,-180 339,-174 339,-168 339,-168 339,-156 339,-156 339,-150 345,-144 351,-144 351,-144 449,-144 449,-144 455,-144 461,-150 461,-156 461,-156 461,-168 461,-168 461,-174 455,-180 449,-180"/>
<text text-anchor="middle" x="400" y="-159.5" font-family="sans" font-size="10.00">Identify_Mu_insertions</text>
</g>
<!-- 11&#45;&gt;5 -->
<g id="edge13" class="edge"><title>11&#45;&gt;5</title>
<path fill="none" stroke="grey" stroke-width="2" d="M385.91,-143.697C379.077,-135.305 370.743,-125.07 363.244,-115.861"/>
<polygon fill="grey" stroke="grey" stroke-width="2" points="365.956,-113.649 356.928,-108.104 360.528,-118.069 365.956,-113.649"/>
</g>
<!-- 12 -->
<g id="node13" class="node"><title>12</title>
<path fill="none" stroke="#68d856" stroke-width="2" d="M279,-612C279,-612 219,-612 219,-612 213,-612 207,-606 207,-600 207,-600 207,-588 207,-588 207,-582 213,-576 219,-576 219,-576 279,-576 279,-576 285,-576 291,-582 291,-588 291,-588 291,-600 291,-600 291,-606 285,-612 279,-612"/>
<text text-anchor="middle" x="249" y="-591.5" font-family="sans" font-size="10.00">bowtie2_index</text>
</g>
<!-- 12&#45;&gt;8 -->
<g id="edge15" class="edge"><title>12&#45;&gt;8</title>
<path fill="none" stroke="grey" stroke-width="2" d="M239.112,-575.697C234.511,-567.644 228.94,-557.894 223.847,-548.982"/>
<polygon fill="grey" stroke="grey" stroke-width="2" points="226.774,-547.05 218.774,-540.104 220.696,-550.523 226.774,-547.05"/>
</g>
<!-- 13 -->
<g id="node14" class="node"><title>13</title>
<path fill="none" stroke="#88d856" stroke-width="2" d="M465,-252C465,-252 335,-252 335,-252 329,-252 323,-246 323,-240 323,-240 323,-228 323,-228 323,-222 329,-216 335,-216 335,-216 465,-216 465,-216 471,-216 477,-222 477,-228 477,-228 477,-240 477,-240 477,-246 471,-252 465,-252"/>
<text text-anchor="middle" x="400" y="-231.5" font-family="sans" font-size="10.00">prepare_MuSeq_table_folder</text>
</g>
<!-- 13&#45;&gt;11 -->
<g id="edge19" class="edge"><title>13&#45;&gt;11</title>
<path fill="none" stroke="grey" stroke-width="2" d="M400,-215.697C400,-207.983 400,-198.712 400,-190.112"/>
<polygon fill="grey" stroke="grey" stroke-width="2" points="403.5,-190.104 400,-180.104 396.5,-190.104 403.5,-190.104"/>
</g>
<!-- 14&#45;&gt;13 -->
<g id="edge20" class="edge"><title>14&#45;&gt;13</title>
<path fill="none" stroke="grey" stroke-width="2" d="M385.697,-287.697C387.813,-279.898 390.362,-270.509 392.718,-261.829"/>
<polygon fill="grey" stroke="grey" stroke-width="2" points="396.116,-262.672 395.357,-252.104 389.36,-260.838 396.116,-262.672"/>
</g>
</g>
</svg>
