<?xml version="1.0" encoding="UTF-8" standalone="no"?>
<!DOCTYPE svg PUBLIC "-//W3C//DTD SVG 1.1//EN"
 "http://www.w3.org/Graphics/SVG/1.1/DTD/svg11.dtd">
<!-- Generated by graphviz version 2.47.2 (20210527.1257)
 -->
<!-- Title: snakemake_dag Pages: 1 -->
<svg width="1062pt" height="1628pt"
 viewBox="0.00 0.00 1061.50 1628.00" xmlns="http://www.w3.org/2000/svg" xmlns:xlink="http://www.w3.org/1999/xlink">
<g id="graph0" class="graph" transform="scale(1 1) rotate(0) translate(4 1624)">
<title>snakemake_dag</title>
<polygon fill="white" stroke="transparent" points="-4,4 -4,-1624 1057.5,-1624 1057.5,4 -4,4"/>
<!-- 0 -->
<g id="node1" class="node">
<title>0</title>
<path fill="none" stroke="#9fd856" stroke-width="2" d="M1041.5,-1476C1041.5,-1476 925.5,-1476 925.5,-1476 919.5,-1476 913.5,-1470 913.5,-1464 913.5,-1464 913.5,-1452 913.5,-1452 913.5,-1446 919.5,-1440 925.5,-1440 925.5,-1440 1041.5,-1440 1041.5,-1440 1047.5,-1440 1053.5,-1446 1053.5,-1452 1053.5,-1452 1053.5,-1464 1053.5,-1464 1053.5,-1470 1047.5,-1476 1041.5,-1476"/>
<text text-anchor="middle" x="983.5" y="-1455.5" font-family="sans" font-size="10.00">create_annotation_tables</text>
</g>
<!-- 4 -->
<g id="node5" class="node">
<title>4</title>
<path fill="none" stroke="#56a9d8" stroke-width="2" d="M893,-972C893,-972 756,-972 756,-972 750,-972 744,-966 744,-960 744,-960 744,-948 744,-948 744,-942 750,-936 756,-936 756,-936 893,-936 893,-936 899,-936 905,-942 905,-948 905,-948 905,-960 905,-960 905,-966 899,-972 893,-972"/>
<text text-anchor="middle" x="824.5" y="-951.5" font-family="sans" font-size="10.00">Annotate_all_insertions_GRID</text>
</g>
<!-- 0&#45;&gt;4 -->
<g id="edge4" class="edge">
<title>0&#45;&gt;4</title>
<path fill="none" stroke="grey" stroke-width="2" d="M987.34,-1439.61C992.9,-1412.94 1002.5,-1360.27 1002.5,-1315 1002.5,-1315 1002.5,-1315 1002.5,-1097 1002.5,-1056.03 1006.47,-1037.94 978.5,-1008 961.62,-989.93 938.3,-978.02 914.91,-970.17"/>
<polygon fill="grey" stroke="grey" stroke-width="2" points="915.85,-966.8 905.26,-967.15 913.76,-973.48 915.85,-966.8"/>
</g>
<!-- 5 -->
<g id="node6" class="node">
<title>5</title>
<path fill="none" stroke="#56d882" stroke-width="2" d="M714,-972C714,-972 545,-972 545,-972 539,-972 533,-966 533,-960 533,-960 533,-948 533,-948 533,-942 539,-936 545,-936 545,-936 714,-936 714,-936 720,-936 726,-942 726,-948 726,-948 726,-960 726,-960 726,-966 720,-972 714,-972"/>
<text text-anchor="middle" x="629.5" y="-951.5" font-family="sans" font-size="10.00">Annotate_germinal_insertions_GRID</text>
</g>
<!-- 0&#45;&gt;5 -->
<g id="edge6" class="edge">
<title>0&#45;&gt;5</title>
<path fill="none" stroke="grey" stroke-width="2" d="M979.66,-1439.61C974.1,-1412.94 964.5,-1360.27 964.5,-1315 964.5,-1315 964.5,-1315 964.5,-1097 964.5,-1043.51 817.88,-998.64 718.64,-974.4"/>
<polygon fill="grey" stroke="grey" stroke-width="2" points="719.43,-970.99 708.89,-972.05 717.79,-977.8 719.43,-970.99"/>
</g>
<!-- 35 -->
<g id="node36" class="node">
<title>35</title>
<path fill="none" stroke="#56d8b9" stroke-width="2" d="M435.5,-36C435.5,-36 405.5,-36 405.5,-36 399.5,-36 393.5,-30 393.5,-24 393.5,-24 393.5,-12 393.5,-12 393.5,-6 399.5,0 405.5,0 405.5,0 435.5,0 435.5,0 441.5,0 447.5,-6 447.5,-12 447.5,-12 447.5,-24 447.5,-24 447.5,-30 441.5,-36 435.5,-36"/>
<text text-anchor="middle" x="420.5" y="-15.5" font-family="sans" font-size="10.00">all</text>
</g>
<!-- 0&#45;&gt;35 -->
<g id="edge59" class="edge">
<title>0&#45;&gt;35</title>
<path fill="none" stroke="grey" stroke-width="2" d="M995.31,-1439.96C1012.01,-1414.16 1040.5,-1363.08 1040.5,-1315 1040.5,-1315 1040.5,-1315 1040.5,-161 1040.5,-40.72 591.52,-22.32 457.7,-19.51"/>
<polygon fill="grey" stroke="grey" stroke-width="2" points="457.6,-16 447.54,-19.31 457.47,-23 457.6,-16"/>
</g>
<!-- 1 -->
<g id="node2" class="node">
<title>1</title>
<path fill="none" stroke="#d85656" stroke-width="2" d="M649,-1548C649,-1548 568,-1548 568,-1548 562,-1548 556,-1542 556,-1536 556,-1536 556,-1524 556,-1524 556,-1518 562,-1512 568,-1512 568,-1512 649,-1512 649,-1512 655,-1512 661,-1518 661,-1524 661,-1524 661,-1536 661,-1536 661,-1542 655,-1548 649,-1548"/>
<text text-anchor="middle" x="608.5" y="-1527.5" font-family="sans" font-size="10.00">fasta_gff_gtf_path</text>
</g>
<!-- 1&#45;&gt;0 -->
<g id="edge1" class="edge">
<title>1&#45;&gt;0</title>
<path fill="none" stroke="grey" stroke-width="2" d="M661.04,-1519.19C723.99,-1507.44 830.12,-1487.63 903.34,-1473.96"/>
<polygon fill="grey" stroke="grey" stroke-width="2" points="904.25,-1477.35 913.44,-1472.08 902.97,-1470.47 904.25,-1477.35"/>
</g>
<!-- 30 -->
<g id="node31" class="node">
<title>30</title>
<path fill="none" stroke="#d89c56" stroke-width="2" d="M534.5,-1476C534.5,-1476 470.5,-1476 470.5,-1476 464.5,-1476 458.5,-1470 458.5,-1464 458.5,-1464 458.5,-1452 458.5,-1452 458.5,-1446 464.5,-1440 470.5,-1440 470.5,-1440 534.5,-1440 534.5,-1440 540.5,-1440 546.5,-1446 546.5,-1452 546.5,-1452 546.5,-1464 546.5,-1464 546.5,-1470 540.5,-1476 534.5,-1476"/>
<text text-anchor="middle" x="502.5" y="-1455.5" font-family="sans" font-size="10.00">bowtie2_index</text>
</g>
<!-- 1&#45;&gt;30 -->
<g id="edge49" class="edge">
<title>1&#45;&gt;30</title>
<path fill="none" stroke="grey" stroke-width="2" d="M582.57,-1511.88C568.84,-1502.81 551.79,-1491.55 536.96,-1481.76"/>
<polygon fill="grey" stroke="grey" stroke-width="2" points="538.8,-1478.78 528.53,-1476.19 534.95,-1484.62 538.8,-1478.78"/>
</g>
<!-- 2 -->
<g id="node3" class="node">
<title>2</title>
<path fill="none" stroke="#5663d8" stroke-width="2" d="M773,-1116C773,-1116 652,-1116 652,-1116 646,-1116 640,-1110 640,-1104 640,-1104 640,-1092 640,-1092 640,-1086 646,-1080 652,-1080 652,-1080 773,-1080 773,-1080 779,-1080 785,-1086 785,-1092 785,-1092 785,-1104 785,-1104 785,-1110 779,-1116 773,-1116"/>
<text text-anchor="middle" x="712.5" y="-1095.5" font-family="sans" font-size="10.00">create_grid_sample_sheet</text>
</g>
<!-- 3 -->
<g id="node4" class="node">
<title>3</title>
<path fill="none" stroke="#569ad8" stroke-width="2" d="M597,-1044C597,-1044 484,-1044 484,-1044 478,-1044 472,-1038 472,-1032 472,-1032 472,-1020 472,-1020 472,-1014 478,-1008 484,-1008 484,-1008 597,-1008 597,-1008 603,-1008 609,-1014 609,-1020 609,-1020 609,-1032 609,-1032 609,-1038 603,-1044 597,-1044"/>
<text text-anchor="middle" x="540.5" y="-1023.5" font-family="sans" font-size="10.00">Identify_insertions_GRID</text>
</g>
<!-- 2&#45;&gt;3 -->
<g id="edge2" class="edge">
<title>2&#45;&gt;3</title>
<path fill="none" stroke="grey" stroke-width="2" d="M670.42,-1079.88C646.7,-1070.22 616.88,-1058.09 591.8,-1047.88"/>
<polygon fill="grey" stroke="grey" stroke-width="2" points="593.02,-1044.6 582.44,-1044.07 590.38,-1051.08 593.02,-1044.6"/>
</g>
<!-- 2&#45;&gt;5 -->
<g id="edge8" class="edge">
<title>2&#45;&gt;5</title>
<path fill="none" stroke="grey" stroke-width="2" d="M702.49,-1079.87C688.09,-1055.24 661.44,-1009.64 644.63,-980.88"/>
<polygon fill="grey" stroke="grey" stroke-width="2" points="647.62,-979.06 639.55,-972.19 641.57,-982.59 647.62,-979.06"/>
</g>
<!-- 3&#45;&gt;4 -->
<g id="edge5" class="edge">
<title>3&#45;&gt;4</title>
<path fill="none" stroke="grey" stroke-width="2" d="M609.25,-1008.05C650.37,-997.92 702.77,-985 745.58,-974.45"/>
<polygon fill="grey" stroke="grey" stroke-width="2" points="746.53,-977.82 755.4,-972.03 744.85,-971.03 746.53,-977.82"/>
</g>
<!-- 3&#45;&gt;5 -->
<g id="edge7" class="edge">
<title>3&#45;&gt;5</title>
<path fill="none" stroke="grey" stroke-width="2" d="M562.5,-1007.7C573.71,-998.88 587.5,-988.03 599.65,-978.47"/>
<polygon fill="grey" stroke="grey" stroke-width="2" points="602.06,-981.04 607.75,-972.1 597.73,-975.54 602.06,-981.04"/>
</g>
<!-- 6 -->
<g id="node7" class="node">
<title>6</title>
<path fill="none" stroke="#56d8c9" stroke-width="2" d="M464.5,-972C464.5,-972 368.5,-972 368.5,-972 362.5,-972 356.5,-966 356.5,-960 356.5,-960 356.5,-948 356.5,-948 356.5,-942 362.5,-936 368.5,-936 368.5,-936 464.5,-936 464.5,-936 470.5,-936 476.5,-942 476.5,-948 476.5,-948 476.5,-960 476.5,-960 476.5,-966 470.5,-972 464.5,-972"/>
<text text-anchor="middle" x="416.5" y="-951.5" font-family="sans" font-size="10.00">te_typing_annotation</text>
</g>
<!-- 3&#45;&gt;6 -->
<g id="edge10" class="edge">
<title>3&#45;&gt;6</title>
<path fill="none" stroke="grey" stroke-width="2" d="M510.17,-1007.88C493.8,-998.64 473.42,-987.13 455.85,-977.21"/>
<polygon fill="grey" stroke="grey" stroke-width="2" points="457.38,-974.06 446.95,-972.19 453.94,-980.15 457.38,-974.06"/>
</g>
<!-- 17 -->
<g id="node18" class="node">
<title>17</title>
<path fill="none" stroke="#d6d856" stroke-width="2" d="M719.5,-900C719.5,-900 529.5,-900 529.5,-900 523.5,-900 517.5,-894 517.5,-888 517.5,-888 517.5,-876 517.5,-876 517.5,-870 523.5,-864 529.5,-864 529.5,-864 719.5,-864 719.5,-864 725.5,-864 731.5,-870 731.5,-876 731.5,-876 731.5,-888 731.5,-888 731.5,-894 725.5,-900 719.5,-900"/>
<text text-anchor="middle" x="624.5" y="-879.5" font-family="sans" font-size="10.00">te_typing_annotation_propagation_GRID</text>
</g>
<!-- 3&#45;&gt;17 -->
<g id="edge25" class="edge">
<title>3&#45;&gt;17</title>
<path fill="none" stroke="grey" stroke-width="2" d="M530.49,-1007.68C521.02,-988.76 510.07,-958.21 523.5,-936 531.61,-922.59 544.36,-912.4 558.11,-904.73"/>
<polygon fill="grey" stroke="grey" stroke-width="2" points="559.95,-907.72 567.25,-900.04 556.75,-901.49 559.95,-907.72"/>
</g>
<!-- 3&#45;&gt;35 -->
<g id="edge60" class="edge">
<title>3&#45;&gt;35</title>
<path fill="none" stroke="grey" stroke-width="2" d="M471.93,-1009.84C420.09,-997.77 356.37,-981.4 347.5,-972 319.74,-942.59 328.5,-923.45 328.5,-883 328.5,-883 328.5,-883 328.5,-161 328.5,-113.47 365.25,-69.3 392.29,-43.23"/>
<polygon fill="grey" stroke="grey" stroke-width="2" points="394.71,-45.76 399.62,-36.37 389.93,-40.65 394.71,-45.76"/>
</g>
<!-- 4&#45;&gt;17 -->
<g id="edge27" class="edge">
<title>4&#45;&gt;17</title>
<path fill="none" stroke="grey" stroke-width="2" d="M775.83,-935.97C747.89,-926.19 712.6,-913.84 683.14,-903.52"/>
<polygon fill="grey" stroke="grey" stroke-width="2" points="683.98,-900.11 673.39,-900.11 681.67,-906.72 683.98,-900.11"/>
</g>
<!-- 4&#45;&gt;35 -->
<g id="edge58" class="edge">
<title>4&#45;&gt;35</title>
<path fill="none" stroke="grey" stroke-width="2" d="M823.31,-935.96C821.57,-909.31 818.5,-856.15 818.5,-811 818.5,-811 818.5,-811 818.5,-161 818.5,-96.72 763.1,-98.43 704.5,-72 621.6,-34.61 513.67,-23.6 457.74,-20.35"/>
<polygon fill="grey" stroke="grey" stroke-width="2" points="457.77,-16.85 447.6,-19.82 457.4,-23.84 457.77,-16.85"/>
</g>
<!-- 5&#45;&gt;17 -->
<g id="edge26" class="edge">
<title>5&#45;&gt;17</title>
<path fill="none" stroke="grey" stroke-width="2" d="M628.26,-935.7C627.71,-927.98 627.05,-918.71 626.44,-910.11"/>
<polygon fill="grey" stroke="grey" stroke-width="2" points="629.93,-909.83 625.72,-900.1 622.94,-910.33 629.93,-909.83"/>
</g>
<!-- 5&#45;&gt;35 -->
<g id="edge62" class="edge">
<title>5&#45;&gt;35</title>
<path fill="none" stroke="grey" stroke-width="2" d="M684.01,-935.93C703.75,-927.61 724.98,-915.88 740.5,-900 770.81,-868.98 780.5,-854.37 780.5,-811 780.5,-811 780.5,-811 780.5,-161 780.5,-92.1 549.43,-42.46 457.54,-25.44"/>
<polygon fill="grey" stroke="grey" stroke-width="2" points="458.02,-21.97 447.56,-23.62 456.77,-28.85 458.02,-21.97"/>
</g>
<!-- 16 -->
<g id="node17" class="node">
<title>16</title>
<path fill="none" stroke="#afd856" stroke-width="2" d="M740.5,-828C740.5,-828 594.5,-828 594.5,-828 588.5,-828 582.5,-822 582.5,-816 582.5,-816 582.5,-804 582.5,-804 582.5,-798 588.5,-792 594.5,-792 594.5,-792 740.5,-792 740.5,-792 746.5,-792 752.5,-798 752.5,-804 752.5,-804 752.5,-816 752.5,-816 752.5,-822 746.5,-828 740.5,-828"/>
<text text-anchor="middle" x="667.5" y="-807.5" font-family="sans" font-size="10.00">get_uncategorized_ins_reads_1</text>
</g>
<!-- 6&#45;&gt;16 -->
<g id="edge22" class="edge">
<title>6&#45;&gt;16</title>
<path fill="none" stroke="grey" stroke-width="2" d="M430.03,-935.9C446.58,-916.03 476.39,-883.48 508.5,-864 531.66,-849.95 559.01,-839.11 584.43,-831"/>
<polygon fill="grey" stroke="grey" stroke-width="2" points="585.54,-834.32 594.07,-828.03 583.48,-827.63 585.54,-834.32"/>
</g>
<!-- 6&#45;&gt;17 -->
<g id="edge24" class="edge">
<title>6&#45;&gt;17</title>
<path fill="none" stroke="grey" stroke-width="2" d="M467.12,-935.97C496.31,-926.14 533.19,-913.73 563.92,-903.39"/>
<polygon fill="grey" stroke="grey" stroke-width="2" points="565.3,-906.62 573.66,-900.11 563.06,-899.98 565.3,-906.62"/>
</g>
<!-- 18 -->
<g id="node19" class="node">
<title>18</title>
<path fill="none" stroke="#88d856" stroke-width="2" d="M552.5,-828C552.5,-828 406.5,-828 406.5,-828 400.5,-828 394.5,-822 394.5,-816 394.5,-816 394.5,-804 394.5,-804 394.5,-798 400.5,-792 406.5,-792 406.5,-792 552.5,-792 552.5,-792 558.5,-792 564.5,-798 564.5,-804 564.5,-804 564.5,-816 564.5,-816 564.5,-822 558.5,-828 552.5,-828"/>
<text text-anchor="middle" x="479.5" y="-807.5" font-family="sans" font-size="10.00">get_uncategorized_ins_reads_2</text>
</g>
<!-- 6&#45;&gt;18 -->
<g id="edge28" class="edge">
<title>6&#45;&gt;18</title>
<path fill="none" stroke="grey" stroke-width="2" d="M424.1,-935.87C434.93,-911.46 454.91,-866.43 467.68,-837.64"/>
<polygon fill="grey" stroke="grey" stroke-width="2" points="471.02,-838.75 471.87,-828.19 464.62,-835.91 471.02,-838.75"/>
</g>
<!-- 6&#45;&gt;35 -->
<g id="edge54" class="edge">
<title>6&#45;&gt;35</title>
<path fill="none" stroke="grey" stroke-width="2" d="M406.14,-935.76C391.49,-909.7 366.5,-858.31 366.5,-811 366.5,-811 366.5,-811 366.5,-161 366.5,-118.11 388.29,-72.41 404.19,-44.78"/>
<polygon fill="grey" stroke="grey" stroke-width="2" points="407.22,-46.52 409.31,-36.13 401.2,-42.95 407.22,-46.52"/>
</g>
<!-- 7 -->
<g id="node8" class="node">
<title>7</title>
<path fill="none" stroke="#56d87b" stroke-width="2" d="M442,-1044C442,-1044 331,-1044 331,-1044 325,-1044 319,-1038 319,-1032 319,-1032 319,-1020 319,-1020 319,-1014 325,-1008 331,-1008 331,-1008 442,-1008 442,-1008 448,-1008 454,-1014 454,-1020 454,-1020 454,-1032 454,-1032 454,-1038 448,-1044 442,-1044"/>
<text text-anchor="middle" x="386.5" y="-1023.5" font-family="sans" font-size="10.00">merging_read_te_typing</text>
</g>
<!-- 7&#45;&gt;6 -->
<g id="edge9" class="edge">
<title>7&#45;&gt;6</title>
<path fill="none" stroke="grey" stroke-width="2" d="M393.92,-1007.7C397.29,-999.81 401.37,-990.3 405.12,-981.55"/>
<polygon fill="grey" stroke="grey" stroke-width="2" points="408.45,-982.67 409.17,-972.1 402.01,-979.92 408.45,-982.67"/>
</g>
<!-- 8 -->
<g id="node9" class="node">
<title>8</title>
<path fill="none" stroke="#56d0d8" stroke-width="2" d="M396,-1116C396,-1116 331,-1116 331,-1116 325,-1116 319,-1110 319,-1104 319,-1104 319,-1092 319,-1092 319,-1086 325,-1080 331,-1080 331,-1080 396,-1080 396,-1080 402,-1080 408,-1086 408,-1092 408,-1092 408,-1104 408,-1104 408,-1110 402,-1116 396,-1116"/>
<text text-anchor="middle" x="363.5" y="-1095.5" font-family="sans" font-size="10.00">read_te_typing</text>
</g>
<!-- 8&#45;&gt;7 -->
<g id="edge11" class="edge">
<title>8&#45;&gt;7</title>
<path fill="none" stroke="grey" stroke-width="2" d="M369.19,-1079.7C371.75,-1071.9 374.83,-1062.51 377.68,-1053.83"/>
<polygon fill="grey" stroke="grey" stroke-width="2" points="381.08,-1054.7 380.88,-1044.1 374.43,-1052.51 381.08,-1054.7"/>
</g>
<!-- 9 -->
<g id="node10" class="node">
<title>9</title>
<path fill="none" stroke="#56d8a9" stroke-width="2" d="M516.5,-108C516.5,-108 434.5,-108 434.5,-108 428.5,-108 422.5,-102 422.5,-96 422.5,-96 422.5,-84 422.5,-84 422.5,-78 428.5,-72 434.5,-72 434.5,-72 516.5,-72 516.5,-72 522.5,-72 528.5,-78 528.5,-84 528.5,-84 528.5,-96 528.5,-96 528.5,-102 522.5,-108 516.5,-108"/>
<text text-anchor="middle" x="475.5" y="-87.5" font-family="sans" font-size="10.00">final_cluster_sizes</text>
</g>
<!-- 9&#45;&gt;35 -->
<g id="edge63" class="edge">
<title>9&#45;&gt;35</title>
<path fill="none" stroke="grey" stroke-width="2" d="M461.9,-71.7C455.38,-63.39 447.43,-53.28 440.25,-44.14"/>
<polygon fill="grey" stroke="grey" stroke-width="2" points="442.87,-41.81 433.94,-36.1 437.37,-46.13 442.87,-41.81"/>
</g>
<!-- 10 -->
<g id="node11" class="node">
<title>10</title>
<path fill="none" stroke="#d8cb56" stroke-width="2" d="M544.5,-180C544.5,-180 406.5,-180 406.5,-180 400.5,-180 394.5,-174 394.5,-168 394.5,-168 394.5,-156 394.5,-156 394.5,-150 400.5,-144 406.5,-144 406.5,-144 544.5,-144 544.5,-144 550.5,-144 556.5,-150 556.5,-156 556.5,-156 556.5,-168 556.5,-168 556.5,-174 550.5,-180 544.5,-180"/>
<text text-anchor="middle" x="475.5" y="-159.5" font-family="sans" font-size="10.00">reformat_clustering_results_1</text>
</g>
<!-- 10&#45;&gt;9 -->
<g id="edge12" class="edge">
<title>10&#45;&gt;9</title>
<path fill="none" stroke="grey" stroke-width="2" d="M475.5,-143.7C475.5,-135.98 475.5,-126.71 475.5,-118.11"/>
<polygon fill="grey" stroke="grey" stroke-width="2" points="479,-118.1 475.5,-108.1 472,-118.1 479,-118.1"/>
</g>
<!-- 11 -->
<g id="node12" class="node">
<title>11</title>
<path fill="none" stroke="#56d892" stroke-width="2" d="M708.5,-252C708.5,-252 566.5,-252 566.5,-252 560.5,-252 554.5,-246 554.5,-240 554.5,-240 554.5,-228 554.5,-228 554.5,-222 560.5,-216 566.5,-216 566.5,-216 708.5,-216 708.5,-216 714.5,-216 720.5,-222 720.5,-228 720.5,-228 720.5,-240 720.5,-240 720.5,-246 714.5,-252 708.5,-252"/>
<text text-anchor="middle" x="637.5" y="-231.5" font-family="sans" font-size="10.00">clustering_unc_reads_final_set</text>
</g>
<!-- 11&#45;&gt;10 -->
<g id="edge14" class="edge">
<title>11&#45;&gt;10</title>
<path fill="none" stroke="grey" stroke-width="2" d="M597.87,-215.88C575.72,-206.31 547.94,-194.3 524.44,-184.15"/>
<polygon fill="grey" stroke="grey" stroke-width="2" points="525.57,-180.82 515,-180.07 522.79,-187.25 525.57,-180.82"/>
</g>
<!-- 22 -->
<g id="node23" class="node">
<title>22</title>
<path fill="none" stroke="#d88d56" stroke-width="2" d="M724.5,-180C724.5,-180 586.5,-180 586.5,-180 580.5,-180 574.5,-174 574.5,-168 574.5,-168 574.5,-156 574.5,-156 574.5,-150 580.5,-144 586.5,-144 586.5,-144 724.5,-144 724.5,-144 730.5,-144 736.5,-150 736.5,-156 736.5,-156 736.5,-168 736.5,-168 736.5,-174 730.5,-180 724.5,-180"/>
<text text-anchor="middle" x="655.5" y="-159.5" font-family="sans" font-size="10.00">reformat_clustering_results_2</text>
</g>
<!-- 11&#45;&gt;22 -->
<g id="edge34" class="edge">
<title>11&#45;&gt;22</title>
<path fill="none" stroke="grey" stroke-width="2" d="M641.95,-215.7C643.95,-207.9 646.37,-198.51 648.6,-189.83"/>
<polygon fill="grey" stroke="grey" stroke-width="2" points="652,-190.66 651.1,-180.1 645.22,-188.92 652,-190.66"/>
</g>
<!-- 12 -->
<g id="node13" class="node">
<title>12</title>
<path fill="none" stroke="#567bd8" stroke-width="2" d="M707.5,-324C707.5,-324 567.5,-324 567.5,-324 561.5,-324 555.5,-318 555.5,-312 555.5,-312 555.5,-300 555.5,-300 555.5,-294 561.5,-288 567.5,-288 567.5,-288 707.5,-288 707.5,-288 713.5,-288 719.5,-294 719.5,-300 719.5,-300 719.5,-312 719.5,-312 719.5,-318 713.5,-324 707.5,-324"/>
<text text-anchor="middle" x="637.5" y="-303.5" font-family="sans" font-size="10.00">concat_motif_subregions_files</text>
</g>
<!-- 12&#45;&gt;11 -->
<g id="edge15" class="edge">
<title>12&#45;&gt;11</title>
<path fill="none" stroke="grey" stroke-width="2" d="M637.5,-287.7C637.5,-279.98 637.5,-270.71 637.5,-262.11"/>
<polygon fill="grey" stroke="grey" stroke-width="2" points="641,-262.1 637.5,-252.1 634,-262.1 641,-262.1"/>
</g>
<!-- 13 -->
<g id="node14" class="node">
<title>13</title>
<path fill="none" stroke="#d87d56" stroke-width="2" d="M718.5,-396C718.5,-396 556.5,-396 556.5,-396 550.5,-396 544.5,-390 544.5,-384 544.5,-384 544.5,-372 544.5,-372 544.5,-366 550.5,-360 556.5,-360 556.5,-360 718.5,-360 718.5,-360 724.5,-360 730.5,-366 730.5,-372 730.5,-372 730.5,-384 730.5,-384 730.5,-390 724.5,-396 718.5,-396"/>
<text text-anchor="middle" x="637.5" y="-375.5" font-family="sans" font-size="10.00">rename_unc_ins_motif_subregions</text>
</g>
<!-- 13&#45;&gt;12 -->
<g id="edge16" class="edge">
<title>13&#45;&gt;12</title>
<path fill="none" stroke="grey" stroke-width="2" d="M637.5,-359.7C637.5,-351.98 637.5,-342.71 637.5,-334.11"/>
<polygon fill="grey" stroke="grey" stroke-width="2" points="641,-334.1 637.5,-324.1 634,-334.1 641,-334.1"/>
</g>
<!-- 14 -->
<g id="node15" class="node">
<title>14</title>
<path fill="none" stroke="#61d856" stroke-width="2" d="M717,-468C717,-468 558,-468 558,-468 552,-468 546,-462 546,-456 546,-456 546,-444 546,-444 546,-438 552,-432 558,-432 558,-432 717,-432 717,-432 723,-432 729,-438 729,-444 729,-444 729,-456 729,-456 729,-462 723,-468 717,-468"/>
<text text-anchor="middle" x="637.5" y="-447.5" font-family="sans" font-size="10.00">extract_unc_ins_motif_subregions</text>
</g>
<!-- 14&#45;&gt;13 -->
<g id="edge17" class="edge">
<title>14&#45;&gt;13</title>
<path fill="none" stroke="grey" stroke-width="2" d="M637.5,-431.7C637.5,-423.98 637.5,-414.71 637.5,-406.11"/>
<polygon fill="grey" stroke="grey" stroke-width="2" points="641,-406.1 637.5,-396.1 634,-406.1 641,-406.1"/>
</g>
<!-- 15 -->
<g id="node16" class="node">
<title>15</title>
<path fill="none" stroke="#56d8d8" stroke-width="2" d="M707.5,-756C707.5,-756 557.5,-756 557.5,-756 551.5,-756 545.5,-750 545.5,-744 545.5,-744 545.5,-732 545.5,-732 545.5,-726 551.5,-720 557.5,-720 557.5,-720 707.5,-720 707.5,-720 713.5,-720 719.5,-726 719.5,-732 719.5,-732 719.5,-744 719.5,-744 719.5,-750 713.5,-756 707.5,-756"/>
<text text-anchor="middle" x="632.5" y="-735.5" font-family="sans" font-size="10.00">merge_uncategorized_ins_reads</text>
</g>
<!-- 15&#45;&gt;14 -->
<g id="edge18" class="edge">
<title>15&#45;&gt;14</title>
<path fill="none" stroke="grey" stroke-width="2" d="M636.33,-719.99C644.48,-681.43 661.95,-584.5 651.5,-504 650.4,-495.51 648.34,-486.43 646.13,-478.24"/>
<polygon fill="grey" stroke="grey" stroke-width="2" points="649.45,-477.09 643.32,-468.44 642.72,-479.02 649.45,-477.09"/>
</g>
<!-- 20 -->
<g id="node21" class="node">
<title>20</title>
<path fill="none" stroke="#5673d8" stroke-width="2" d="M628.5,-612C628.5,-612 574.5,-612 574.5,-612 568.5,-612 562.5,-606 562.5,-600 562.5,-600 562.5,-588 562.5,-588 562.5,-582 568.5,-576 574.5,-576 574.5,-576 628.5,-576 628.5,-576 634.5,-576 640.5,-582 640.5,-588 640.5,-588 640.5,-600 640.5,-600 640.5,-606 634.5,-612 628.5,-612"/>
<text text-anchor="middle" x="601.5" y="-591.5" font-family="sans" font-size="10.00">locate_motif</text>
</g>
<!-- 15&#45;&gt;20 -->
<g id="edge31" class="edge">
<title>15&#45;&gt;20</title>
<path fill="none" stroke="grey" stroke-width="2" d="M628.92,-719.92C625.15,-702 619,-673 613.5,-648 611.65,-639.58 609.59,-630.41 607.71,-622.11"/>
<polygon fill="grey" stroke="grey" stroke-width="2" points="611.08,-621.15 605.44,-612.17 604.25,-622.7 611.08,-621.15"/>
</g>
<!-- 21 -->
<g id="node22" class="node">
<title>21</title>
<path fill="none" stroke="#d8c356" stroke-width="2" d="M592.5,-684C592.5,-684 458.5,-684 458.5,-684 452.5,-684 446.5,-678 446.5,-672 446.5,-672 446.5,-660 446.5,-660 446.5,-654 452.5,-648 458.5,-648 458.5,-648 592.5,-648 592.5,-648 598.5,-648 604.5,-654 604.5,-660 604.5,-660 604.5,-672 604.5,-672 604.5,-678 598.5,-684 592.5,-684"/>
<text text-anchor="middle" x="525.5" y="-663.5" font-family="sans" font-size="10.00">index_categorized_ins_reads</text>
</g>
<!-- 15&#45;&gt;21 -->
<g id="edge33" class="edge">
<title>15&#45;&gt;21</title>
<path fill="none" stroke="grey" stroke-width="2" d="M606.32,-719.88C592.46,-710.81 575.26,-699.55 560.29,-689.76"/>
<polygon fill="grey" stroke="grey" stroke-width="2" points="562.06,-686.74 551.78,-684.19 558.23,-692.59 562.06,-686.74"/>
</g>
<!-- 16&#45;&gt;15 -->
<g id="edge21" class="edge">
<title>16&#45;&gt;15</title>
<path fill="none" stroke="grey" stroke-width="2" d="M658.85,-791.7C654.86,-783.73 650.05,-774.1 645.63,-765.26"/>
<polygon fill="grey" stroke="grey" stroke-width="2" points="648.65,-763.48 641.05,-756.1 642.39,-766.61 648.65,-763.48"/>
</g>
<!-- 17&#45;&gt;16 -->
<g id="edge23" class="edge">
<title>17&#45;&gt;16</title>
<path fill="none" stroke="grey" stroke-width="2" d="M635.13,-863.7C640.13,-855.56 646.19,-845.69 651.71,-836.7"/>
<polygon fill="grey" stroke="grey" stroke-width="2" points="654.74,-838.46 656.99,-828.1 648.78,-834.79 654.74,-838.46"/>
</g>
<!-- 17&#45;&gt;18 -->
<g id="edge29" class="edge">
<title>17&#45;&gt;18</title>
<path fill="none" stroke="grey" stroke-width="2" d="M589.03,-863.88C569.38,-854.39 544.78,-842.51 523.87,-832.42"/>
<polygon fill="grey" stroke="grey" stroke-width="2" points="525.38,-829.26 514.86,-828.07 522.34,-835.57 525.38,-829.26"/>
</g>
<!-- 18&#45;&gt;15 -->
<g id="edge20" class="edge">
<title>18&#45;&gt;15</title>
<path fill="none" stroke="grey" stroke-width="2" d="M516.93,-791.88C537.75,-782.35 563.85,-770.41 585.98,-760.28"/>
<polygon fill="grey" stroke="grey" stroke-width="2" points="587.56,-763.41 595.19,-756.07 584.64,-757.05 587.56,-763.41"/>
</g>
<!-- 19 -->
<g id="node20" class="node">
<title>19</title>
<path fill="none" stroke="#56b1d8" stroke-width="2" d="M630.5,-540C630.5,-540 572.5,-540 572.5,-540 566.5,-540 560.5,-534 560.5,-528 560.5,-528 560.5,-516 560.5,-516 560.5,-510 566.5,-504 572.5,-504 572.5,-504 630.5,-504 630.5,-504 636.5,-504 642.5,-510 642.5,-516 642.5,-516 642.5,-528 642.5,-528 642.5,-534 636.5,-540 630.5,-540"/>
<text text-anchor="middle" x="601.5" y="-519.5" font-family="sans" font-size="10.00">extend_motif</text>
</g>
<!-- 19&#45;&gt;14 -->
<g id="edge19" class="edge">
<title>19&#45;&gt;14</title>
<path fill="none" stroke="grey" stroke-width="2" d="M610.4,-503.7C614.5,-495.73 619.45,-486.1 623.99,-477.26"/>
<polygon fill="grey" stroke="grey" stroke-width="2" points="627.24,-478.6 628.7,-468.1 621.02,-475.4 627.24,-478.6"/>
</g>
<!-- 20&#45;&gt;19 -->
<g id="edge30" class="edge">
<title>20&#45;&gt;19</title>
<path fill="none" stroke="grey" stroke-width="2" d="M601.5,-575.7C601.5,-567.98 601.5,-558.71 601.5,-550.11"/>
<polygon fill="grey" stroke="grey" stroke-width="2" points="605,-550.1 601.5,-540.1 598,-550.1 605,-550.1"/>
</g>
<!-- 21&#45;&gt;20 -->
<g id="edge32" class="edge">
<title>21&#45;&gt;20</title>
<path fill="none" stroke="grey" stroke-width="2" d="M544.29,-647.7C553.67,-639.05 565.18,-628.45 575.41,-619.03"/>
<polygon fill="grey" stroke="grey" stroke-width="2" points="577.95,-621.45 582.93,-612.1 573.2,-616.3 577.95,-621.45"/>
</g>
<!-- 22&#45;&gt;9 -->
<g id="edge13" class="edge">
<title>22&#45;&gt;9</title>
<path fill="none" stroke="grey" stroke-width="2" d="M611.47,-143.88C586.53,-134.18 555.16,-121.98 528.84,-111.74"/>
<polygon fill="grey" stroke="grey" stroke-width="2" points="529.98,-108.43 519.39,-108.07 527.44,-114.95 529.98,-108.43"/>
</g>
<!-- 23 -->
<g id="node24" class="node">
<title>23</title>
<path fill="none" stroke="#78d856" stroke-width="2" d="M173,-1188C173,-1188 114,-1188 114,-1188 108,-1188 102,-1182 102,-1176 102,-1176 102,-1164 102,-1164 102,-1158 108,-1152 114,-1152 114,-1152 173,-1152 173,-1152 179,-1152 185,-1158 185,-1164 185,-1164 185,-1176 185,-1176 185,-1182 179,-1188 173,-1188"/>
<text text-anchor="middle" x="143.5" y="-1167.5" font-family="sans" font-size="10.00">multiqc_GRID</text>
</g>
<!-- 23&#45;&gt;35 -->
<g id="edge55" class="edge">
<title>23&#45;&gt;35</title>
<path fill="none" stroke="grey" stroke-width="2" d="M122.85,-1151.58C96,-1126.87 52.5,-1078.83 52.5,-1027 52.5,-1027 52.5,-1027 52.5,-161 52.5,-90.54 290.29,-41.6 383.58,-25.11"/>
<polygon fill="grey" stroke="grey" stroke-width="2" points="384.19,-28.56 393.44,-23.4 382.99,-21.66 384.19,-28.56"/>
</g>
<!-- 24 -->
<g id="node25" class="node">
<title>24</title>
<path fill="none" stroke="#568ad8" stroke-width="2" d="M65,-1332C65,-1332 12,-1332 12,-1332 6,-1332 0,-1326 0,-1320 0,-1320 0,-1308 0,-1308 0,-1302 6,-1296 12,-1296 12,-1296 65,-1296 65,-1296 71,-1296 77,-1302 77,-1308 77,-1308 77,-1320 77,-1320 77,-1326 71,-1332 65,-1332"/>
<text text-anchor="middle" x="38.5" y="-1311.5" font-family="sans" font-size="10.00">fastqc_GRID</text>
</g>
<!-- 24&#45;&gt;23 -->
<g id="edge39" class="edge">
<title>24&#45;&gt;23</title>
<path fill="none" stroke="grey" stroke-width="2" d="M47.14,-1295.83C56.81,-1277.32 73.5,-1247.36 91.5,-1224 99.17,-1214.05 108.53,-1203.99 117.19,-1195.36"/>
<polygon fill="grey" stroke="grey" stroke-width="2" points="119.85,-1197.66 124.56,-1188.17 114.96,-1192.65 119.85,-1197.66"/>
</g>
<!-- 25 -->
<g id="node26" class="node">
<title>25</title>
<path fill="none" stroke="#68d856" stroke-width="2" d="M228,-1620C228,-1620 117,-1620 117,-1620 111,-1620 105,-1614 105,-1608 105,-1608 105,-1596 105,-1596 105,-1590 111,-1584 117,-1584 117,-1584 228,-1584 228,-1584 234,-1584 240,-1590 240,-1596 240,-1596 240,-1608 240,-1608 240,-1614 234,-1620 228,-1620"/>
<text text-anchor="middle" x="172.5" y="-1599.5" font-family="sans" font-size="10.00">create_read_type_check</text>
</g>
<!-- 25&#45;&gt;24 -->
<g id="edge41" class="edge">
<title>25&#45;&gt;24</title>
<path fill="none" stroke="grey" stroke-width="2" d="M127.4,-1583.93C110.88,-1575.52 93.55,-1563.73 82.5,-1548 38.01,-1484.7 35.13,-1388.77 36.74,-1342.23"/>
<polygon fill="grey" stroke="grey" stroke-width="2" points="40.25,-1342.18 37.2,-1332.03 33.26,-1341.87 40.25,-1342.18"/>
</g>
<!-- 27 -->
<g id="node28" class="node">
<title>27</title>
<path fill="none" stroke="#d86e56" stroke-width="2" d="M252.5,-1476C252.5,-1476 166.5,-1476 166.5,-1476 160.5,-1476 154.5,-1470 154.5,-1464 154.5,-1464 154.5,-1452 154.5,-1452 154.5,-1446 160.5,-1440 166.5,-1440 166.5,-1440 252.5,-1440 252.5,-1440 258.5,-1440 264.5,-1446 264.5,-1452 264.5,-1452 264.5,-1464 264.5,-1464 264.5,-1470 258.5,-1476 252.5,-1476"/>
<text text-anchor="middle" x="209.5" y="-1455.5" font-family="sans" font-size="10.00">trimmomatic_GRID</text>
</g>
<!-- 25&#45;&gt;27 -->
<g id="edge43" class="edge">
<title>25&#45;&gt;27</title>
<path fill="none" stroke="grey" stroke-width="2" d="M178.4,-1583.93C181.87,-1573.6 186.2,-1560.12 189.5,-1548 195.08,-1527.5 200.3,-1504.04 204.01,-1486.36"/>
<polygon fill="grey" stroke="grey" stroke-width="2" points="207.52,-1486.67 206.12,-1476.17 200.67,-1485.26 207.52,-1486.67"/>
</g>
<!-- 28 -->
<g id="node29" class="node">
<title>28</title>
<path fill="none" stroke="#56d86b" stroke-width="2" d="M169,-1548C169,-1548 104,-1548 104,-1548 98,-1548 92,-1542 92,-1536 92,-1536 92,-1524 92,-1524 92,-1518 98,-1512 104,-1512 104,-1512 169,-1512 169,-1512 175,-1512 181,-1518 181,-1524 181,-1524 181,-1536 181,-1536 181,-1542 175,-1548 169,-1548"/>
<text text-anchor="middle" x="136.5" y="-1527.5" font-family="sans" font-size="10.00">cutadapt_GRID</text>
</g>
<!-- 25&#45;&gt;28 -->
<g id="edge45" class="edge">
<title>25&#45;&gt;28</title>
<path fill="none" stroke="grey" stroke-width="2" d="M163.6,-1583.7C159.5,-1575.73 154.55,-1566.1 150.01,-1557.26"/>
<polygon fill="grey" stroke="grey" stroke-width="2" points="152.98,-1555.4 145.3,-1548.1 146.76,-1558.6 152.98,-1555.4"/>
</g>
<!-- 29 -->
<g id="node30" class="node">
<title>29</title>
<path fill="none" stroke="#56d8a2" stroke-width="2" d="M417,-1404C417,-1404 326,-1404 326,-1404 320,-1404 314,-1398 314,-1392 314,-1392 314,-1380 314,-1380 314,-1374 320,-1368 326,-1368 326,-1368 417,-1368 417,-1368 423,-1368 429,-1374 429,-1380 429,-1380 429,-1392 429,-1392 429,-1398 423,-1404 417,-1404"/>
<text text-anchor="middle" x="371.5" y="-1383.5" font-family="sans" font-size="10.00">bowtie2_align_GRID</text>
</g>
<!-- 25&#45;&gt;29 -->
<g id="edge46" class="edge">
<title>25&#45;&gt;29</title>
<path fill="none" stroke="grey" stroke-width="2" d="M188.45,-1583.85C223.6,-1546.05 307.85,-1455.45 348.62,-1411.6"/>
<polygon fill="grey" stroke="grey" stroke-width="2" points="351.23,-1413.94 355.48,-1404.23 346.1,-1409.17 351.23,-1413.94"/>
</g>
<!-- 26 -->
<g id="node27" class="node">
<title>26</title>
<path fill="none" stroke="#d8b456" stroke-width="2" d="M283.5,-1404C283.5,-1404 183.5,-1404 183.5,-1404 177.5,-1404 171.5,-1398 171.5,-1392 171.5,-1392 171.5,-1380 171.5,-1380 171.5,-1374 177.5,-1368 183.5,-1368 183.5,-1368 283.5,-1368 283.5,-1368 289.5,-1368 295.5,-1374 295.5,-1380 295.5,-1380 295.5,-1392 295.5,-1392 295.5,-1398 289.5,-1404 283.5,-1404"/>
<text text-anchor="middle" x="233.5" y="-1383.5" font-family="sans" font-size="10.00">trimmed_fastqc_GRID</text>
</g>
<!-- 26&#45;&gt;23 -->
<g id="edge37" class="edge">
<title>26&#45;&gt;23</title>
<path fill="none" stroke="grey" stroke-width="2" d="M223.64,-1367.59C218.01,-1357.38 211.01,-1344.13 205.5,-1332 184.47,-1285.75 164.08,-1230.1 152.73,-1197.81"/>
<polygon fill="grey" stroke="grey" stroke-width="2" points="155.97,-1196.48 149.37,-1188.19 149.36,-1198.79 155.97,-1196.48"/>
</g>
<!-- 27&#45;&gt;23 -->
<g id="edge35" class="edge">
<title>27&#45;&gt;23</title>
<path fill="none" stroke="grey" stroke-width="2" d="M189.19,-1439.98C179.34,-1430.48 168.39,-1417.8 162.5,-1404 132.92,-1334.69 136.25,-1243.34 140.32,-1198.39"/>
<polygon fill="grey" stroke="grey" stroke-width="2" points="143.82,-1198.55 141.32,-1188.25 136.85,-1197.86 143.82,-1198.55"/>
</g>
<!-- 27&#45;&gt;26 -->
<g id="edge42" class="edge">
<title>27&#45;&gt;26</title>
<path fill="none" stroke="grey" stroke-width="2" d="M215.43,-1439.7C218.11,-1431.9 221.33,-1422.51 224.3,-1413.83"/>
<polygon fill="grey" stroke="grey" stroke-width="2" points="227.7,-1414.7 227.64,-1404.1 221.08,-1412.43 227.7,-1414.7"/>
</g>
<!-- 27&#45;&gt;29 -->
<g id="edge47" class="edge">
<title>27&#45;&gt;29</title>
<path fill="none" stroke="grey" stroke-width="2" d="M249.13,-1439.88C271.28,-1430.31 299.06,-1418.3 322.56,-1408.15"/>
<polygon fill="grey" stroke="grey" stroke-width="2" points="324.21,-1411.25 332,-1404.07 321.43,-1404.82 324.21,-1411.25"/>
</g>
<!-- 28&#45;&gt;23 -->
<g id="edge38" class="edge">
<title>28&#45;&gt;23</title>
<path fill="none" stroke="grey" stroke-width="2" d="M130.23,-1511.78C121.17,-1485.32 105.5,-1432.92 105.5,-1387 105.5,-1387 105.5,-1387 105.5,-1313 105.5,-1271.63 120.73,-1225.72 131.91,-1197.61"/>
<polygon fill="grey" stroke="grey" stroke-width="2" points="135.26,-1198.67 135.81,-1188.09 128.78,-1196.02 135.26,-1198.67"/>
</g>
<!-- 28&#45;&gt;27 -->
<g id="edge44" class="edge">
<title>28&#45;&gt;27</title>
<path fill="none" stroke="grey" stroke-width="2" d="M154.54,-1511.7C163.56,-1503.05 174.62,-1492.45 184.44,-1483.03"/>
<polygon fill="grey" stroke="grey" stroke-width="2" points="186.87,-1485.55 191.66,-1476.1 182.02,-1480.5 186.87,-1485.55"/>
</g>
<!-- 29&#45;&gt;23 -->
<g id="edge40" class="edge">
<title>29&#45;&gt;23</title>
<path fill="none" stroke="grey" stroke-width="2" d="M353.23,-1367.85C312.87,-1329.97 216.03,-1239.08 169.42,-1195.33"/>
<polygon fill="grey" stroke="grey" stroke-width="2" points="171.55,-1192.52 161.86,-1188.23 166.76,-1197.63 171.55,-1192.52"/>
</g>
<!-- 32 -->
<g id="node33" class="node">
<title>32</title>
<path fill="none" stroke="#d86656" stroke-width="2" d="M402.5,-1332C402.5,-1332 340.5,-1332 340.5,-1332 334.5,-1332 328.5,-1326 328.5,-1320 328.5,-1320 328.5,-1308 328.5,-1308 328.5,-1302 334.5,-1296 340.5,-1296 340.5,-1296 402.5,-1296 402.5,-1296 408.5,-1296 414.5,-1302 414.5,-1308 414.5,-1308 414.5,-1320 414.5,-1320 414.5,-1326 408.5,-1332 402.5,-1332"/>
<text text-anchor="middle" x="371.5" y="-1311.5" font-family="sans" font-size="10.00">samtools_sort</text>
</g>
<!-- 29&#45;&gt;32 -->
<g id="edge51" class="edge">
<title>29&#45;&gt;32</title>
<path fill="none" stroke="grey" stroke-width="2" d="M371.5,-1367.7C371.5,-1359.98 371.5,-1350.71 371.5,-1342.11"/>
<polygon fill="grey" stroke="grey" stroke-width="2" points="375,-1342.1 371.5,-1332.1 368,-1342.1 375,-1342.1"/>
</g>
<!-- 30&#45;&gt;29 -->
<g id="edge48" class="edge">
<title>30&#45;&gt;29</title>
<path fill="none" stroke="grey" stroke-width="2" d="M470.45,-1439.88C453.01,-1430.55 431.23,-1418.92 412.56,-1408.94"/>
<polygon fill="grey" stroke="grey" stroke-width="2" points="414.14,-1405.82 403.67,-1404.19 410.84,-1411.99 414.14,-1405.82"/>
</g>
<!-- 31 -->
<g id="node32" class="node">
<title>31</title>
<path fill="none" stroke="#d8a456" stroke-width="2" d="M381,-1260C381,-1260 260,-1260 260,-1260 254,-1260 248,-1254 248,-1248 248,-1248 248,-1236 248,-1236 248,-1230 254,-1224 260,-1224 260,-1224 381,-1224 381,-1224 387,-1224 393,-1230 393,-1236 393,-1236 393,-1248 393,-1248 393,-1254 387,-1260 381,-1260"/>
<text text-anchor="middle" x="320.5" y="-1239.5" font-family="sans" font-size="10.00">remove_duplicates_picard</text>
</g>
<!-- 31&#45;&gt;23 -->
<g id="edge36" class="edge">
<title>31&#45;&gt;23</title>
<path fill="none" stroke="grey" stroke-width="2" d="M277.2,-1223.88C252.23,-1214 220.69,-1201.53 194.51,-1191.17"/>
<polygon fill="grey" stroke="grey" stroke-width="2" points="195.72,-1187.89 185.13,-1187.47 193.15,-1194.4 195.72,-1187.89"/>
</g>
<!-- 34 -->
<g id="node35" class="node">
<title>34</title>
<path fill="none" stroke="#56c1d8" stroke-width="2" d="M369.5,-1188C369.5,-1188 271.5,-1188 271.5,-1188 265.5,-1188 259.5,-1182 259.5,-1176 259.5,-1176 259.5,-1164 259.5,-1164 259.5,-1158 265.5,-1152 271.5,-1152 271.5,-1152 369.5,-1152 369.5,-1152 375.5,-1152 381.5,-1158 381.5,-1164 381.5,-1164 381.5,-1176 381.5,-1176 381.5,-1182 375.5,-1188 369.5,-1188"/>
<text text-anchor="middle" x="320.5" y="-1167.5" font-family="sans" font-size="10.00">convert_bam_to_sam</text>
</g>
<!-- 31&#45;&gt;34 -->
<g id="edge53" class="edge">
<title>31&#45;&gt;34</title>
<path fill="none" stroke="grey" stroke-width="2" d="M320.5,-1223.7C320.5,-1215.98 320.5,-1206.71 320.5,-1198.11"/>
<polygon fill="grey" stroke="grey" stroke-width="2" points="324,-1198.1 320.5,-1188.1 317,-1198.1 324,-1198.1"/>
</g>
<!-- 37 -->
<g id="node38" class="node">
<title>37</title>
<path fill="none" stroke="#c6d856" stroke-width="2" d="M250.5,-756C250.5,-756 92.5,-756 92.5,-756 86.5,-756 80.5,-750 80.5,-744 80.5,-744 80.5,-732 80.5,-732 80.5,-726 86.5,-720 92.5,-720 92.5,-720 250.5,-720 250.5,-720 256.5,-720 262.5,-726 262.5,-732 262.5,-732 262.5,-744 262.5,-744 262.5,-750 256.5,-756 250.5,-756"/>
<text text-anchor="middle" x="171.5" y="-735.5" font-family="sans" font-size="10.00">index_sorted_bams_without_dups</text>
</g>
<!-- 31&#45;&gt;37 -->
<g id="edge65" class="edge">
<title>31&#45;&gt;37</title>
<path fill="none" stroke="grey" stroke-width="2" d="M290.08,-1223.99C276.28,-1214.9 260.77,-1202.58 250.5,-1188 226.62,-1154.1 222.5,-1140.47 222.5,-1099 222.5,-1099 222.5,-1099 222.5,-881 222.5,-838.59 202.1,-793.02 187.1,-765.26"/>
<polygon fill="grey" stroke="grey" stroke-width="2" points="189.99,-763.25 182.07,-756.21 183.87,-766.65 189.99,-763.25"/>
</g>
<!-- 32&#45;&gt;31 -->
<g id="edge50" class="edge">
<title>32&#45;&gt;31</title>
<path fill="none" stroke="grey" stroke-width="2" d="M358.89,-1295.7C352.9,-1287.47 345.62,-1277.48 339.02,-1268.42"/>
<polygon fill="grey" stroke="grey" stroke-width="2" points="341.68,-1266.13 332.96,-1260.1 336.02,-1270.25 341.68,-1266.13"/>
</g>
<!-- 36 -->
<g id="node37" class="node">
<title>36</title>
<path fill="none" stroke="#8fd856" stroke-width="2" d="M1001,-900C1001,-900 858,-900 858,-900 852,-900 846,-894 846,-888 846,-888 846,-876 846,-876 846,-870 852,-864 858,-864 858,-864 1001,-864 1001,-864 1007,-864 1013,-870 1013,-876 1013,-876 1013,-888 1013,-888 1013,-894 1007,-900 1001,-900"/>
<text text-anchor="middle" x="929.5" y="-879.5" font-family="sans" font-size="10.00">index_sorted_bams_with_dups</text>
</g>
<!-- 32&#45;&gt;36 -->
<g id="edge64" class="edge">
<title>32&#45;&gt;36</title>
<path fill="none" stroke="grey" stroke-width="2" d="M414.59,-1311.22C544.99,-1304.69 926.5,-1276.55 926.5,-1171 926.5,-1171 926.5,-1171 926.5,-1097 926.5,-1029.95 927.99,-951.09 928.87,-910.39"/>
<polygon fill="grey" stroke="grey" stroke-width="2" points="932.37,-910.27 929.1,-900.2 925.38,-910.12 932.37,-910.27"/>
</g>
<!-- 33 -->
<g id="node34" class="node">
<title>33</title>
<path fill="none" stroke="#b6d856" stroke-width="2" d="M609.5,-1116C609.5,-1116 437.5,-1116 437.5,-1116 431.5,-1116 425.5,-1110 425.5,-1104 425.5,-1104 425.5,-1092 425.5,-1092 425.5,-1086 431.5,-1080 437.5,-1080 437.5,-1080 609.5,-1080 609.5,-1080 615.5,-1080 621.5,-1086 621.5,-1092 621.5,-1092 621.5,-1104 621.5,-1104 621.5,-1110 615.5,-1116 609.5,-1116"/>
<text text-anchor="middle" x="523.5" y="-1095.5" font-family="sans" font-size="10.00">prepare_insertion_table_folder_GRID</text>
</g>
<!-- 33&#45;&gt;3 -->
<g id="edge3" class="edge">
<title>33&#45;&gt;3</title>
<path fill="none" stroke="grey" stroke-width="2" d="M527.7,-1079.7C529.6,-1071.9 531.88,-1062.51 533.98,-1053.83"/>
<polygon fill="grey" stroke="grey" stroke-width="2" points="537.39,-1054.65 536.35,-1044.1 530.58,-1053 537.39,-1054.65"/>
</g>
<!-- 34&#45;&gt;33 -->
<g id="edge52" class="edge">
<title>34&#45;&gt;33</title>
<path fill="none" stroke="grey" stroke-width="2" d="M369.9,-1151.97C398.39,-1142.14 434.39,-1129.73 464.37,-1119.39"/>
<polygon fill="grey" stroke="grey" stroke-width="2" points="465.57,-1122.68 473.88,-1116.11 463.28,-1116.06 465.57,-1122.68"/>
</g>
<!-- 34&#45;&gt;35 -->
<g id="edge56" class="edge">
<title>34&#45;&gt;35</title>
<path fill="none" stroke="grey" stroke-width="2" d="M314.43,-1151.76C305.66,-1125.28 290.5,-1072.86 290.5,-1027 290.5,-1027 290.5,-1027 290.5,-161 290.5,-105.15 345.89,-61.71 384.36,-38.27"/>
<polygon fill="grey" stroke="grey" stroke-width="2" points="386.42,-41.12 393.25,-33.03 382.86,-35.09 386.42,-41.12"/>
</g>
<!-- 36&#45;&gt;35 -->
<g id="edge61" class="edge">
<title>36&#45;&gt;35</title>
<path fill="none" stroke="grey" stroke-width="2" d="M922.21,-863.87C911.7,-837.53 893.5,-785.29 893.5,-739 893.5,-739 893.5,-739 893.5,-161 893.5,-113.05 873.41,-97.02 832.5,-72 769.98,-33.76 547.06,-22.83 457.82,-19.95"/>
<polygon fill="grey" stroke="grey" stroke-width="2" points="457.72,-16.45 447.62,-19.64 457.51,-23.45 457.72,-16.45"/>
</g>
<!-- 37&#45;&gt;35 -->
<g id="edge57" class="edge">
<title>37&#45;&gt;35</title>
<path fill="none" stroke="grey" stroke-width="2" d="M179.59,-719.95C191.28,-693.72 211.5,-641.61 211.5,-595 211.5,-595 211.5,-595 211.5,-161 211.5,-78.89 323.22,-40.94 383.3,-26.47"/>
<polygon fill="grey" stroke="grey" stroke-width="2" points="384.22,-29.85 393.18,-24.19 382.65,-23.03 384.22,-29.85"/>
</g>
</g>
</svg>
