<?xml version="1.0" encoding="UTF-8" standalone="no"?>
<!DOCTYPE svg PUBLIC "-//W3C//DTD SVG 1.1//EN"
 "http://www.w3.org/Graphics/SVG/1.1/DTD/svg11.dtd">
<!-- Generated by graphviz version 2.42.3 (20191010.1750)
 -->
<!-- Title: snakemake_dag Pages: 1 -->
<svg width="539pt" height="692pt"
 viewBox="0.00 0.00 538.50 692.00" xmlns="http://www.w3.org/2000/svg" xmlns:xlink="http://www.w3.org/1999/xlink">
<g id="graph0" class="graph" transform="scale(1 1) rotate(0) translate(4 688)">
<title>snakemake_dag</title>
<polygon fill="white" stroke="transparent" points="-4,4 -4,-688 534.5,-688 534.5,4 -4,4"/>
<!-- 0 -->
<g id="node1" class="node">
<title>0</title>
<path fill="none" stroke="#56d863" stroke-width="2" d="M229,-36C229,-36 199,-36 199,-36 193,-36 187,-30 187,-24 187,-24 187,-12 187,-12 187,-6 193,0 199,0 199,0 229,0 229,0 235,0 241,-6 241,-12 241,-12 241,-24 241,-24 241,-30 235,-36 229,-36"/>
<text text-anchor="middle" x="214" y="-15.5" font-family="sans" font-size="10.00">all</text>
</g>
<!-- 1 -->
<g id="node2" class="node">
<title>1</title>
<path fill="none" stroke="#d89556" stroke-width="2" d="M120,-324C120,-324 90,-324 90,-324 84,-324 78,-318 78,-312 78,-312 78,-300 78,-300 78,-294 84,-288 90,-288 90,-288 120,-288 120,-288 126,-288 132,-294 132,-300 132,-300 132,-312 132,-312 132,-318 126,-324 120,-324"/>
<text text-anchor="middle" x="105" y="-303.5" font-family="sans" font-size="10.00">multiqc</text>
</g>
<!-- 1&#45;&gt;0 -->
<g id="edge1" class="edge">
<title>1&#45;&gt;0</title>
<path fill="none" stroke="grey" stroke-width="2" d="M107.52,-287.98C110.46,-269.86 115.97,-240.47 124,-216 145.9,-149.28 159.58,-135.76 189,-72 193.03,-63.27 197.49,-53.77 201.51,-45.26"/>
<polygon fill="grey" stroke="grey" stroke-width="2" points="204.7,-46.69 205.82,-36.15 198.38,-43.69 204.7,-46.69"/>
</g>
<!-- 2 -->
<g id="node3" class="node">
<title>2</title>
<path fill="none" stroke="#5673d8" stroke-width="2" d="M287.5,-252C287.5,-252 144.5,-252 144.5,-252 138.5,-252 132.5,-246 132.5,-240 132.5,-240 132.5,-228 132.5,-228 132.5,-222 138.5,-216 144.5,-216 144.5,-216 287.5,-216 287.5,-216 293.5,-216 299.5,-222 299.5,-228 299.5,-228 299.5,-240 299.5,-240 299.5,-246 293.5,-252 287.5,-252"/>
<text text-anchor="middle" x="216" y="-231.5" font-family="sans" font-size="10.00">index_sorted_bams_with_dups</text>
</g>
<!-- 2&#45;&gt;0 -->
<g id="edge4" class="edge">
<title>2&#45;&gt;0</title>
<path fill="none" stroke="grey" stroke-width="2" d="M206.87,-215.88C201.99,-205.76 196.49,-192.51 194,-180 184.7,-133.34 196.38,-78.17 205.4,-46.02"/>
<polygon fill="grey" stroke="grey" stroke-width="2" points="208.87,-46.63 208.33,-36.05 202.15,-44.66 208.87,-46.63"/>
</g>
<!-- 3 -->
<g id="node4" class="node">
<title>3</title>
<path fill="none" stroke="#5692d8" stroke-width="2" d="M373,-180C373,-180 215,-180 215,-180 209,-180 203,-174 203,-168 203,-168 203,-156 203,-156 203,-150 209,-144 215,-144 215,-144 373,-144 373,-144 379,-144 385,-150 385,-156 385,-156 385,-168 385,-168 385,-174 379,-180 373,-180"/>
<text text-anchor="middle" x="294" y="-159.5" font-family="sans" font-size="10.00">index_sorted_bams_without_dups</text>
</g>
<!-- 3&#45;&gt;0 -->
<g id="edge3" class="edge">
<title>3&#45;&gt;0</title>
<path fill="none" stroke="grey" stroke-width="2" d="M284.35,-143.87C270.54,-119.35 245,-74.03 228.79,-45.26"/>
<polygon fill="grey" stroke="grey" stroke-width="2" points="231.64,-43.18 223.68,-36.19 225.54,-46.62 231.64,-43.18"/>
</g>
<!-- 4 -->
<g id="node5" class="node">
<title>4</title>
<path fill="none" stroke="#56d0d8" stroke-width="2" d="M494,-108C494,-108 342,-108 342,-108 336,-108 330,-102 330,-96 330,-96 330,-84 330,-84 330,-78 336,-72 342,-72 342,-72 494,-72 494,-72 500,-72 506,-78 506,-84 506,-84 506,-96 506,-96 506,-102 500,-108 494,-108"/>
<text text-anchor="middle" x="418" y="-87.5" font-family="sans" font-size="10.00">Assign_Gene_and_Transcript_IDs</text>
</g>
<!-- 4&#45;&gt;0 -->
<g id="edge2" class="edge">
<title>4&#45;&gt;0</title>
<path fill="none" stroke="grey" stroke-width="2" d="M368.36,-71.97C332.12,-59.53 283.8,-42.95 250.94,-31.67"/>
<polygon fill="grey" stroke="grey" stroke-width="2" points="251.86,-28.29 241.27,-28.36 249.59,-34.91 251.86,-28.29"/>
</g>
<!-- 5 -->
<g id="node6" class="node">
<title>5</title>
<path fill="none" stroke="#56d8a2" stroke-width="2" d="M110,-396C110,-396 80,-396 80,-396 74,-396 68,-390 68,-384 68,-384 68,-372 68,-372 68,-366 74,-360 80,-360 80,-360 110,-360 110,-360 116,-360 122,-366 122,-372 122,-372 122,-384 122,-384 122,-390 116,-396 110,-396"/>
<text text-anchor="middle" x="95" y="-375.5" font-family="sans" font-size="10.00">fastqc</text>
</g>
<!-- 5&#45;&gt;1 -->
<g id="edge9" class="edge">
<title>5&#45;&gt;1</title>
<path fill="none" stroke="grey" stroke-width="2" d="M97.47,-359.7C98.57,-351.98 99.9,-342.71 101.13,-334.11"/>
<polygon fill="grey" stroke="grey" stroke-width="2" points="104.61,-334.5 102.56,-324.1 97.68,-333.51 104.61,-334.5"/>
</g>
<!-- 6 -->
<g id="node7" class="node">
<title>6</title>
<path fill="none" stroke="#9fd856" stroke-width="2" d="M66.5,-684C66.5,-684 31.5,-684 31.5,-684 25.5,-684 19.5,-678 19.5,-672 19.5,-672 19.5,-660 19.5,-660 19.5,-654 25.5,-648 31.5,-648 31.5,-648 66.5,-648 66.5,-648 72.5,-648 78.5,-654 78.5,-660 78.5,-660 78.5,-672 78.5,-672 78.5,-678 72.5,-684 66.5,-684"/>
<text text-anchor="middle" x="49" y="-663.5" font-family="sans" font-size="10.00">cutadapt</text>
</g>
<!-- 6&#45;&gt;1 -->
<g id="edge7" class="edge">
<title>6&#45;&gt;1</title>
<path fill="none" stroke="grey" stroke-width="2" d="M38.85,-647.73C24.49,-621.64 0,-570.2 0,-523 0,-523 0,-523 0,-449 0,-399.46 41.82,-355.9 72.68,-330.49"/>
<polygon fill="grey" stroke="grey" stroke-width="2" points="75.02,-333.1 80.65,-324.13 70.65,-327.63 75.02,-333.1"/>
</g>
<!-- 7 -->
<g id="node8" class="node">
<title>7</title>
<path fill="none" stroke="#d8d356" stroke-width="2" d="M125,-612C125,-612 69,-612 69,-612 63,-612 57,-606 57,-600 57,-600 57,-588 57,-588 57,-582 63,-576 69,-576 69,-576 125,-576 125,-576 131,-576 137,-582 137,-588 137,-588 137,-600 137,-600 137,-606 131,-612 125,-612"/>
<text text-anchor="middle" x="97" y="-591.5" font-family="sans" font-size="10.00">trimmomatic</text>
</g>
<!-- 6&#45;&gt;7 -->
<g id="edge14" class="edge">
<title>6&#45;&gt;7</title>
<path fill="none" stroke="grey" stroke-width="2" d="M60.87,-647.7C66.5,-639.47 73.35,-629.48 79.57,-620.42"/>
<polygon fill="grey" stroke="grey" stroke-width="2" points="82.5,-622.33 85.27,-612.1 76.73,-618.37 82.5,-622.33"/>
</g>
<!-- 7&#45;&gt;1 -->
<g id="edge6" class="edge">
<title>7&#45;&gt;1</title>
<path fill="none" stroke="grey" stroke-width="2" d="M103.82,-575.86C118.33,-537.06 149.48,-439.64 131,-360 128.9,-350.96 125.03,-341.68 120.91,-333.47"/>
<polygon fill="grey" stroke="grey" stroke-width="2" points="123.86,-331.55 116.05,-324.39 117.69,-334.86 123.86,-331.55"/>
</g>
<!-- 8 -->
<g id="node9" class="node">
<title>8</title>
<path fill="none" stroke="#56b1d8" stroke-width="2" d="M110,-468C110,-468 40,-468 40,-468 34,-468 28,-462 28,-456 28,-456 28,-444 28,-444 28,-438 34,-432 40,-432 40,-432 110,-432 110,-432 116,-432 122,-438 122,-444 122,-444 122,-456 122,-456 122,-462 116,-468 110,-468"/>
<text text-anchor="middle" x="75" y="-447.5" font-family="sans" font-size="10.00">trimmed_fastqc</text>
</g>
<!-- 7&#45;&gt;8 -->
<g id="edge15" class="edge">
<title>7&#45;&gt;8</title>
<path fill="none" stroke="grey" stroke-width="2" d="M94.35,-575.87C90.6,-551.67 83.71,-507.21 79.24,-478.39"/>
<polygon fill="grey" stroke="grey" stroke-width="2" points="82.65,-477.54 77.66,-468.19 75.74,-478.61 82.65,-477.54"/>
</g>
<!-- 9 -->
<g id="node10" class="node">
<title>9</title>
<path fill="none" stroke="#56d8c1" stroke-width="2" d="M251.5,-540C251.5,-540 190.5,-540 190.5,-540 184.5,-540 178.5,-534 178.5,-528 178.5,-528 178.5,-516 178.5,-516 178.5,-510 184.5,-504 190.5,-504 190.5,-504 251.5,-504 251.5,-504 257.5,-504 263.5,-510 263.5,-516 263.5,-516 263.5,-528 263.5,-528 263.5,-534 257.5,-540 251.5,-540"/>
<text text-anchor="middle" x="221" y="-519.5" font-family="sans" font-size="10.00">bowtie2_align</text>
</g>
<!-- 7&#45;&gt;9 -->
<g id="edge17" class="edge">
<title>7&#45;&gt;9</title>
<path fill="none" stroke="grey" stroke-width="2" d="M127.33,-575.88C143.7,-566.64 164.08,-555.13 181.65,-545.21"/>
<polygon fill="grey" stroke="grey" stroke-width="2" points="183.56,-548.15 190.55,-540.19 180.12,-542.06 183.56,-548.15"/>
</g>
<!-- 8&#45;&gt;1 -->
<g id="edge10" class="edge">
<title>8&#45;&gt;1</title>
<path fill="none" stroke="grey" stroke-width="2" d="M66.66,-431.79C58.98,-413.5 50.05,-383.97 59,-360 62.88,-349.62 69.8,-339.93 77.12,-331.74"/>
<polygon fill="grey" stroke="grey" stroke-width="2" points="79.78,-334.03 84.18,-324.38 74.73,-329.18 79.78,-334.03"/>
</g>
<!-- 9&#45;&gt;1 -->
<g id="edge8" class="edge">
<title>9&#45;&gt;1</title>
<path fill="none" stroke="grey" stroke-width="2" d="M216.14,-503.98C205.62,-467.79 180.36,-384.46 164,-360 156.76,-349.18 146.83,-339.13 137.17,-330.75"/>
<polygon fill="grey" stroke="grey" stroke-width="2" points="139.12,-327.81 129.19,-324.12 134.65,-333.2 139.12,-327.81"/>
</g>
<!-- 11 -->
<g id="node12" class="node">
<title>11</title>
<path fill="none" stroke="#d87556" stroke-width="2" d="M320,-468C320,-468 228,-468 228,-468 222,-468 216,-462 216,-456 216,-456 216,-444 216,-444 216,-438 222,-432 228,-432 228,-432 320,-432 320,-432 326,-432 332,-438 332,-444 332,-444 332,-456 332,-456 332,-462 326,-468 320,-468"/>
<text text-anchor="middle" x="274" y="-447.5" font-family="sans" font-size="10.00">sam_to_sorted_bam</text>
</g>
<!-- 9&#45;&gt;11 -->
<g id="edge19" class="edge">
<title>9&#45;&gt;11</title>
<path fill="none" stroke="grey" stroke-width="2" d="M234.1,-503.7C240.39,-495.39 248.05,-485.28 254.96,-476.14"/>
<polygon fill="grey" stroke="grey" stroke-width="2" points="257.8,-478.19 261.05,-468.1 252.22,-473.96 257.8,-478.19"/>
</g>
<!-- 10 -->
<g id="node11" class="node">
<title>10</title>
<path fill="none" stroke="#d85656" stroke-width="2" d="M387.5,-396C387.5,-396 266.5,-396 266.5,-396 260.5,-396 254.5,-390 254.5,-384 254.5,-384 254.5,-372 254.5,-372 254.5,-366 260.5,-360 266.5,-360 266.5,-360 387.5,-360 387.5,-360 393.5,-360 399.5,-366 399.5,-372 399.5,-372 399.5,-384 399.5,-384 399.5,-390 393.5,-396 387.5,-396"/>
<text text-anchor="middle" x="327" y="-375.5" font-family="sans" font-size="10.00">remove_duplicates_picard</text>
</g>
<!-- 10&#45;&gt;1 -->
<g id="edge5" class="edge">
<title>10&#45;&gt;1</title>
<path fill="none" stroke="grey" stroke-width="2" d="M272.98,-359.97C232.27,-347.13 177.53,-329.87 141.77,-318.59"/>
<polygon fill="grey" stroke="grey" stroke-width="2" points="142.81,-315.25 132.22,-315.58 140.7,-321.93 142.81,-315.25"/>
</g>
<!-- 10&#45;&gt;3 -->
<g id="edge12" class="edge">
<title>10&#45;&gt;3</title>
<path fill="none" stroke="grey" stroke-width="2" d="M325.78,-359.96C323.5,-330.44 317.88,-267.98 308,-216 306.38,-207.45 304.13,-198.25 301.91,-189.96"/>
<polygon fill="grey" stroke="grey" stroke-width="2" points="305.2,-188.75 299.16,-180.05 298.46,-190.62 305.2,-188.75"/>
</g>
<!-- 16 -->
<g id="node17" class="node">
<title>16</title>
<path fill="none" stroke="#88d856" stroke-width="2" d="M473,-324C473,-324 375,-324 375,-324 369,-324 363,-318 363,-312 363,-312 363,-300 363,-300 363,-294 369,-288 375,-288 375,-288 473,-288 473,-288 479,-288 485,-294 485,-300 485,-300 485,-312 485,-312 485,-318 479,-324 473,-324"/>
<text text-anchor="middle" x="424" y="-303.5" font-family="sans" font-size="10.00">convert_bam_to_sam</text>
</g>
<!-- 10&#45;&gt;16 -->
<g id="edge23" class="edge">
<title>10&#45;&gt;16</title>
<path fill="none" stroke="grey" stroke-width="2" d="M350.98,-359.7C363.31,-350.8 378.52,-339.82 391.85,-330.2"/>
<polygon fill="grey" stroke="grey" stroke-width="2" points="394.24,-332.79 400.3,-324.1 390.14,-327.12 394.24,-332.79"/>
</g>
<!-- 11&#45;&gt;2 -->
<g id="edge11" class="edge">
<title>11&#45;&gt;2</title>
<path fill="none" stroke="grey" stroke-width="2" d="M263.29,-431.93C257.38,-421.83 250.38,-408.58 246,-396 230.21,-350.65 222.19,-295.05 218.57,-262.48"/>
<polygon fill="grey" stroke="grey" stroke-width="2" points="222.03,-261.94 217.5,-252.36 215.07,-262.67 222.03,-261.94"/>
</g>
<!-- 11&#45;&gt;10 -->
<g id="edge18" class="edge">
<title>11&#45;&gt;10</title>
<path fill="none" stroke="grey" stroke-width="2" d="M287.1,-431.7C293.39,-423.39 301.05,-413.28 307.96,-404.14"/>
<polygon fill="grey" stroke="grey" stroke-width="2" points="310.8,-406.19 314.05,-396.1 305.22,-401.96 310.8,-406.19"/>
</g>
<!-- 12 -->
<g id="node13" class="node">
<title>12</title>
<path fill="none" stroke="#bed856" stroke-width="2" d="M518.5,-180C518.5,-180 415.5,-180 415.5,-180 409.5,-180 403.5,-174 403.5,-168 403.5,-168 403.5,-156 403.5,-156 403.5,-150 409.5,-144 415.5,-144 415.5,-144 518.5,-144 518.5,-144 524.5,-144 530.5,-150 530.5,-156 530.5,-156 530.5,-168 530.5,-168 530.5,-174 524.5,-180 518.5,-180"/>
<text text-anchor="middle" x="467" y="-159.5" font-family="sans" font-size="10.00">Identify_Mu_insertions</text>
</g>
<!-- 12&#45;&gt;4 -->
<g id="edge13" class="edge">
<title>12&#45;&gt;4</title>
<path fill="none" stroke="grey" stroke-width="2" d="M454.89,-143.7C449.13,-135.47 442.14,-125.48 435.79,-116.42"/>
<polygon fill="grey" stroke="grey" stroke-width="2" points="438.58,-114.29 429.97,-108.1 432.84,-118.3 438.58,-114.29"/>
</g>
<!-- 13 -->
<g id="node14" class="node">
<title>13</title>
<path fill="none" stroke="#68d856" stroke-width="2" d="M253,-612C253,-612 189,-612 189,-612 183,-612 177,-606 177,-600 177,-600 177,-588 177,-588 177,-582 183,-576 189,-576 189,-576 253,-576 253,-576 259,-576 265,-582 265,-588 265,-588 265,-600 265,-600 265,-606 259,-612 253,-612"/>
<text text-anchor="middle" x="221" y="-591.5" font-family="sans" font-size="10.00">bowtie2_index</text>
</g>
<!-- 13&#45;&gt;9 -->
<g id="edge16" class="edge">
<title>13&#45;&gt;9</title>
<path fill="none" stroke="grey" stroke-width="2" d="M221,-575.7C221,-567.98 221,-558.71 221,-550.11"/>
<polygon fill="grey" stroke="grey" stroke-width="2" points="224.5,-550.1 221,-540.1 217.5,-550.1 224.5,-550.1"/>
</g>
<!-- 14 -->
<g id="node15" class="node">
<title>14</title>
<path fill="none" stroke="#d8b456" stroke-width="2" d="M499.5,-252C499.5,-252 368.5,-252 368.5,-252 362.5,-252 356.5,-246 356.5,-240 356.5,-240 356.5,-228 356.5,-228 356.5,-222 362.5,-216 368.5,-216 368.5,-216 499.5,-216 499.5,-216 505.5,-216 511.5,-222 511.5,-228 511.5,-228 511.5,-240 511.5,-240 511.5,-246 505.5,-252 499.5,-252"/>
<text text-anchor="middle" x="434" y="-231.5" font-family="sans" font-size="10.00">prepare_MuSeq_table_folder</text>
</g>
<!-- 14&#45;&gt;12 -->
<g id="edge20" class="edge">
<title>14&#45;&gt;12</title>
<path fill="none" stroke="grey" stroke-width="2" d="M442.16,-215.7C445.91,-207.73 450.45,-198.1 454.62,-189.26"/>
<polygon fill="grey" stroke="grey" stroke-width="2" points="457.84,-190.64 458.94,-180.1 451.51,-187.66 457.84,-190.64"/>
</g>
<!-- 15 -->
<g id="node16" class="node">
<title>15</title>
<path fill="none" stroke="#56d882" stroke-width="2" d="M285,-684C285,-684 157,-684 157,-684 151,-684 145,-678 145,-672 145,-672 145,-660 145,-660 145,-654 151,-648 157,-648 157,-648 285,-648 285,-648 291,-648 297,-654 297,-660 297,-660 297,-672 297,-672 297,-678 291,-684 285,-684"/>
<text text-anchor="middle" x="221" y="-663.5" font-family="sans" font-size="10.00">fasta_annotation_download</text>
</g>
<!-- 15&#45;&gt;13 -->
<g id="edge21" class="edge">
<title>15&#45;&gt;13</title>
<path fill="none" stroke="grey" stroke-width="2" d="M221,-647.7C221,-639.98 221,-630.71 221,-622.11"/>
<polygon fill="grey" stroke="grey" stroke-width="2" points="224.5,-622.1 221,-612.1 217.5,-622.1 224.5,-622.1"/>
</g>
<!-- 16&#45;&gt;14 -->
<g id="edge22" class="edge">
<title>16&#45;&gt;14</title>
<path fill="none" stroke="grey" stroke-width="2" d="M426.47,-287.7C427.57,-279.98 428.9,-270.71 430.13,-262.11"/>
<polygon fill="grey" stroke="grey" stroke-width="2" points="433.61,-262.5 431.56,-252.1 426.68,-261.51 433.61,-262.5"/>
</g>
</g>
</svg>
