<?xml version="1.0" encoding="UTF-8" standalone="no"?>
<!DOCTYPE svg PUBLIC "-//W3C//DTD SVG 1.1//EN"
 "http://www.w3.org/Graphics/SVG/1.1/DTD/svg11.dtd">
<!-- Generated by graphviz version 2.47.2 (20210527.1257)
 -->
<!-- Title: snakemake_dag Pages: 1 -->
<svg width="718pt" height="764pt"
 viewBox="0.00 0.00 717.50 764.00" xmlns="http://www.w3.org/2000/svg" xmlns:xlink="http://www.w3.org/1999/xlink">
<g id="graph0" class="graph" transform="scale(1 1) rotate(0) translate(4 760)">
<title>snakemake_dag</title>
<polygon fill="white" stroke="transparent" points="-4,4 -4,-760 713.5,-760 713.5,4 -4,4"/>
<!-- 0 -->
<g id="node1" class="node">
<title>0</title>
<path fill="none" stroke="#d85656" stroke-width="2" d="M217,-252C217,-252 96,-252 96,-252 90,-252 84,-246 84,-240 84,-240 84,-228 84,-228 84,-222 90,-216 96,-216 96,-216 217,-216 217,-216 223,-216 229,-222 229,-228 229,-228 229,-240 229,-240 229,-246 223,-252 217,-252"/>
<text text-anchor="middle" x="156.5" y="-231.5" font-family="sans" font-size="10.00">create_grid_sample_sheet</text>
</g>
<!-- 2 -->
<g id="node3" class="node">
<title>2</title>
<path fill="none" stroke="#ced856" stroke-width="2" d="M327,-180C327,-180 214,-180 214,-180 208,-180 202,-174 202,-168 202,-168 202,-156 202,-156 202,-150 208,-144 214,-144 214,-144 327,-144 327,-144 333,-144 339,-150 339,-156 339,-156 339,-168 339,-168 339,-174 333,-180 327,-180"/>
<text text-anchor="middle" x="270.5" y="-159.5" font-family="sans" font-size="10.00">Identify_insertions_GRID</text>
</g>
<!-- 0&#45;&gt;2 -->
<g id="edge3" class="edge">
<title>0&#45;&gt;2</title>
<path fill="none" stroke="grey" stroke-width="2" d="M184.39,-215.88C199.29,-206.72 217.83,-195.34 233.88,-185.48"/>
<polygon fill="grey" stroke="grey" stroke-width="2" points="235.81,-188.41 242.51,-180.19 232.15,-182.44 235.81,-188.41"/>
</g>
<!-- 5 -->
<g id="node6" class="node">
<title>5</title>
<path fill="none" stroke="#d8b456" stroke-width="2" d="M333,-108C333,-108 164,-108 164,-108 158,-108 152,-102 152,-96 152,-96 152,-84 152,-84 152,-78 158,-72 164,-72 164,-72 333,-72 333,-72 339,-72 345,-78 345,-84 345,-84 345,-96 345,-96 345,-102 339,-108 333,-108"/>
<text text-anchor="middle" x="248.5" y="-87.5" font-family="sans" font-size="10.00">Annotate_germinal_insertions_GRID</text>
</g>
<!-- 0&#45;&gt;5 -->
<g id="edge7" class="edge">
<title>0&#45;&gt;5</title>
<path fill="none" stroke="grey" stroke-width="2" d="M161.04,-215.87C166.53,-197.12 177,-166.72 192.5,-144 199.75,-133.37 209.45,-123.26 218.73,-114.77"/>
<polygon fill="grey" stroke="grey" stroke-width="2" points="221.18,-117.27 226.37,-108.04 216.55,-112.02 221.18,-117.27"/>
</g>
<!-- 1 -->
<g id="node2" class="node">
<title>1</title>
<path fill="none" stroke="#56d8c9" stroke-width="2" d="M512,-108C512,-108 375,-108 375,-108 369,-108 363,-102 363,-96 363,-96 363,-84 363,-84 363,-78 369,-72 375,-72 375,-72 512,-72 512,-72 518,-72 524,-78 524,-84 524,-84 524,-96 524,-96 524,-102 518,-108 512,-108"/>
<text text-anchor="middle" x="443.5" y="-87.5" font-family="sans" font-size="10.00">Annotate_all_insertions_GRID</text>
</g>
<!-- 18 -->
<g id="node19" class="node">
<title>18</title>
<path fill="none" stroke="#56d882" stroke-width="2" d="M458.5,-36C458.5,-36 428.5,-36 428.5,-36 422.5,-36 416.5,-30 416.5,-24 416.5,-24 416.5,-12 416.5,-12 416.5,-6 422.5,0 428.5,0 428.5,0 458.5,0 458.5,0 464.5,0 470.5,-6 470.5,-12 470.5,-12 470.5,-24 470.5,-24 470.5,-30 464.5,-36 458.5,-36"/>
<text text-anchor="middle" x="443.5" y="-15.5" font-family="sans" font-size="10.00">all</text>
</g>
<!-- 1&#45;&gt;18 -->
<g id="edge30" class="edge">
<title>1&#45;&gt;18</title>
<path fill="none" stroke="grey" stroke-width="2" d="M443.5,-71.7C443.5,-63.98 443.5,-54.71 443.5,-46.11"/>
<polygon fill="grey" stroke="grey" stroke-width="2" points="447,-46.1 443.5,-36.1 440,-46.1 447,-46.1"/>
</g>
<!-- 2&#45;&gt;1 -->
<g id="edge2" class="edge">
<title>2&#45;&gt;1</title>
<path fill="none" stroke="grey" stroke-width="2" d="M312.82,-143.88C336.68,-134.22 366.67,-122.09 391.9,-111.88"/>
<polygon fill="grey" stroke="grey" stroke-width="2" points="393.36,-115.06 401.32,-108.07 390.73,-108.57 393.36,-115.06"/>
</g>
<!-- 2&#45;&gt;5 -->
<g id="edge8" class="edge">
<title>2&#45;&gt;5</title>
<path fill="none" stroke="grey" stroke-width="2" d="M265.06,-143.7C262.61,-135.9 259.66,-126.51 256.93,-117.83"/>
<polygon fill="grey" stroke="grey" stroke-width="2" points="260.21,-116.59 253.88,-108.1 253.54,-118.69 260.21,-116.59"/>
</g>
<!-- 3 -->
<g id="node4" class="node">
<title>3</title>
<path fill="none" stroke="#56d89a" stroke-width="2" d="M501.5,-180C501.5,-180 385.5,-180 385.5,-180 379.5,-180 373.5,-174 373.5,-168 373.5,-168 373.5,-156 373.5,-156 373.5,-150 379.5,-144 385.5,-144 385.5,-144 501.5,-144 501.5,-144 507.5,-144 513.5,-150 513.5,-156 513.5,-156 513.5,-168 513.5,-168 513.5,-174 507.5,-180 501.5,-180"/>
<text text-anchor="middle" x="443.5" y="-159.5" font-family="sans" font-size="10.00">create_annotation_tables</text>
</g>
<!-- 3&#45;&gt;1 -->
<g id="edge1" class="edge">
<title>3&#45;&gt;1</title>
<path fill="none" stroke="grey" stroke-width="2" d="M443.5,-143.7C443.5,-135.98 443.5,-126.71 443.5,-118.11"/>
<polygon fill="grey" stroke="grey" stroke-width="2" points="447,-118.1 443.5,-108.1 440,-118.1 447,-118.1"/>
</g>
<!-- 3&#45;&gt;5 -->
<g id="edge6" class="edge">
<title>3&#45;&gt;5</title>
<path fill="none" stroke="grey" stroke-width="2" d="M395.8,-143.88C368.55,-134.09 334.2,-121.77 305.53,-111.47"/>
<polygon fill="grey" stroke="grey" stroke-width="2" points="306.64,-108.15 296.05,-108.07 304.28,-114.74 306.64,-108.15"/>
</g>
<!-- 4 -->
<g id="node5" class="node">
<title>4</title>
<path fill="none" stroke="#59d856" stroke-width="2" d="M664,-684C664,-684 583,-684 583,-684 577,-684 571,-678 571,-672 571,-672 571,-660 571,-660 571,-654 577,-648 583,-648 583,-648 664,-648 664,-648 670,-648 676,-654 676,-660 676,-660 676,-672 676,-672 676,-678 670,-684 664,-684"/>
<text text-anchor="middle" x="623.5" y="-663.5" font-family="sans" font-size="10.00">fasta_gff_gtf_path</text>
</g>
<!-- 4&#45;&gt;3 -->
<g id="edge5" class="edge">
<title>4&#45;&gt;3</title>
<path fill="none" stroke="grey" stroke-width="2" d="M642.59,-647.77C667.92,-622.91 709.5,-574.3 709.5,-523 709.5,-523 709.5,-523 709.5,-305 709.5,-219.78 601.94,-185.52 523.62,-171.87"/>
<polygon fill="grey" stroke="grey" stroke-width="2" points="524.17,-168.42 513.74,-170.23 523.03,-175.33 524.17,-168.42"/>
</g>
<!-- 13 -->
<g id="node14" class="node">
<title>13</title>
<path fill="none" stroke="#56d86b" stroke-width="2" d="M569.5,-612C569.5,-612 505.5,-612 505.5,-612 499.5,-612 493.5,-606 493.5,-600 493.5,-600 493.5,-588 493.5,-588 493.5,-582 499.5,-576 505.5,-576 505.5,-576 569.5,-576 569.5,-576 575.5,-576 581.5,-582 581.5,-588 581.5,-588 581.5,-600 581.5,-600 581.5,-606 575.5,-612 569.5,-612"/>
<text text-anchor="middle" x="537.5" y="-591.5" font-family="sans" font-size="10.00">bowtie2_index</text>
</g>
<!-- 4&#45;&gt;13 -->
<g id="edge23" class="edge">
<title>4&#45;&gt;13</title>
<path fill="none" stroke="grey" stroke-width="2" d="M602.24,-647.7C591.41,-638.88 578.08,-628.03 566.34,-618.47"/>
<polygon fill="grey" stroke="grey" stroke-width="2" points="568.48,-615.7 558.51,-612.1 564.06,-621.13 568.48,-615.7"/>
</g>
<!-- 5&#45;&gt;18 -->
<g id="edge32" class="edge">
<title>5&#45;&gt;18</title>
<path fill="none" stroke="grey" stroke-width="2" d="M296.2,-71.88C330.29,-59.64 375.47,-43.42 406.76,-32.19"/>
<polygon fill="grey" stroke="grey" stroke-width="2" points="408.17,-35.4 416.4,-28.73 405.81,-28.81 408.17,-35.4"/>
</g>
<!-- 6 -->
<g id="node7" class="node">
<title>6</title>
<path fill="none" stroke="#569ad8" stroke-width="2" d="M225,-324C225,-324 166,-324 166,-324 160,-324 154,-318 154,-312 154,-312 154,-300 154,-300 154,-294 160,-288 166,-288 166,-288 225,-288 225,-288 231,-288 237,-294 237,-300 237,-300 237,-312 237,-312 237,-318 231,-324 225,-324"/>
<text text-anchor="middle" x="195.5" y="-303.5" font-family="sans" font-size="10.00">multiqc_GRID</text>
</g>
<!-- 6&#45;&gt;18 -->
<g id="edge29" class="edge">
<title>6&#45;&gt;18</title>
<path fill="none" stroke="grey" stroke-width="2" d="M153.71,-298.63C126.12,-292.01 91.94,-278.68 74.5,-252 35.72,-192.68 68.45,-128.52 142.5,-72 183.32,-40.84 334.49,-26.5 405.8,-21.36"/>
<polygon fill="grey" stroke="grey" stroke-width="2" points="406.4,-24.83 416.13,-20.64 405.91,-17.84 406.4,-24.83"/>
</g>
<!-- 7 -->
<g id="node8" class="node">
<title>7</title>
<path fill="none" stroke="#88d856" stroke-width="2" d="M65,-468C65,-468 12,-468 12,-468 6,-468 0,-462 0,-456 0,-456 0,-444 0,-444 0,-438 6,-432 12,-432 12,-432 65,-432 65,-432 71,-432 77,-438 77,-444 77,-444 77,-456 77,-456 77,-462 71,-468 65,-468"/>
<text text-anchor="middle" x="38.5" y="-447.5" font-family="sans" font-size="10.00">fastqc_GRID</text>
</g>
<!-- 7&#45;&gt;6 -->
<g id="edge10" class="edge">
<title>7&#45;&gt;6</title>
<path fill="none" stroke="grey" stroke-width="2" d="M45.31,-431.65C53.7,-412.15 69.58,-380.53 91.5,-360 106.68,-345.79 126.4,-334.45 144.58,-325.97"/>
<polygon fill="grey" stroke="grey" stroke-width="2" points="146.22,-329.08 153.92,-321.8 143.36,-322.69 146.22,-329.08"/>
</g>
<!-- 8 -->
<g id="node9" class="node">
<title>8</title>
<path fill="none" stroke="#d8cb56" stroke-width="2" d="M290,-756C290,-756 179,-756 179,-756 173,-756 167,-750 167,-744 167,-744 167,-732 167,-732 167,-726 173,-720 179,-720 179,-720 290,-720 290,-720 296,-720 302,-726 302,-732 302,-732 302,-744 302,-744 302,-750 296,-756 290,-756"/>
<text text-anchor="middle" x="234.5" y="-735.5" font-family="sans" font-size="10.00">create_read_type_check</text>
</g>
<!-- 8&#45;&gt;7 -->
<g id="edge15" class="edge">
<title>8&#45;&gt;7</title>
<path fill="none" stroke="grey" stroke-width="2" d="M219.47,-719.78C199.18,-696.21 162.37,-652.2 134.5,-612 102.77,-566.24 70.57,-509.72 52.7,-477.27"/>
<polygon fill="grey" stroke="grey" stroke-width="2" points="55.72,-475.49 47.84,-468.4 49.58,-478.85 55.72,-475.49"/>
</g>
<!-- 10 -->
<g id="node11" class="node">
<title>10</title>
<path fill="none" stroke="#d89c56" stroke-width="2" d="M241.5,-612C241.5,-612 155.5,-612 155.5,-612 149.5,-612 143.5,-606 143.5,-600 143.5,-600 143.5,-588 143.5,-588 143.5,-582 149.5,-576 155.5,-576 155.5,-576 241.5,-576 241.5,-576 247.5,-576 253.5,-582 253.5,-588 253.5,-588 253.5,-600 253.5,-600 253.5,-606 247.5,-612 241.5,-612"/>
<text text-anchor="middle" x="198.5" y="-591.5" font-family="sans" font-size="10.00">trimmomatic_GRID</text>
</g>
<!-- 8&#45;&gt;10 -->
<g id="edge18" class="edge">
<title>8&#45;&gt;10</title>
<path fill="none" stroke="grey" stroke-width="2" d="M228.55,-719.94C225.07,-709.62 220.73,-696.14 217.5,-684 212.04,-663.52 207.09,-640.06 203.61,-622.37"/>
<polygon fill="grey" stroke="grey" stroke-width="2" points="206.97,-621.34 201.64,-612.18 200.1,-622.66 206.97,-621.34"/>
</g>
<!-- 11 -->
<g id="node12" class="node">
<title>11</title>
<path fill="none" stroke="#566bd8" stroke-width="2" d="M304,-684C304,-684 239,-684 239,-684 233,-684 227,-678 227,-672 227,-672 227,-660 227,-660 227,-654 233,-648 239,-648 239,-648 304,-648 304,-648 310,-648 316,-654 316,-660 316,-660 316,-672 316,-672 316,-678 310,-684 304,-684"/>
<text text-anchor="middle" x="271.5" y="-663.5" font-family="sans" font-size="10.00">cutadapt_GRID</text>
</g>
<!-- 8&#45;&gt;11 -->
<g id="edge19" class="edge">
<title>8&#45;&gt;11</title>
<path fill="none" stroke="grey" stroke-width="2" d="M243.65,-719.7C247.9,-711.64 253.06,-701.89 257.77,-692.98"/>
<polygon fill="grey" stroke="grey" stroke-width="2" points="260.88,-694.58 262.46,-684.1 254.69,-691.31 260.88,-694.58"/>
</g>
<!-- 12 -->
<g id="node13" class="node">
<title>12</title>
<path fill="none" stroke="#56b1d8" stroke-width="2" d="M417,-540C417,-540 326,-540 326,-540 320,-540 314,-534 314,-528 314,-528 314,-516 314,-516 314,-510 320,-504 326,-504 326,-504 417,-504 417,-504 423,-504 429,-510 429,-516 429,-516 429,-528 429,-528 429,-534 423,-540 417,-540"/>
<text text-anchor="middle" x="371.5" y="-519.5" font-family="sans" font-size="10.00">bowtie2_align_GRID</text>
</g>
<!-- 8&#45;&gt;12 -->
<g id="edge22" class="edge">
<title>8&#45;&gt;12</title>
<path fill="none" stroke="grey" stroke-width="2" d="M277.9,-719.84C294.58,-711.3 312.47,-699.46 324.5,-684 355.4,-644.29 366,-584.83 369.63,-550.38"/>
<polygon fill="grey" stroke="grey" stroke-width="2" points="373.14,-550.41 370.57,-540.13 366.17,-549.77 373.14,-550.41"/>
</g>
<!-- 9 -->
<g id="node10" class="node">
<title>9</title>
<path fill="none" stroke="#d88556" stroke-width="2" d="M245.5,-540C245.5,-540 145.5,-540 145.5,-540 139.5,-540 133.5,-534 133.5,-528 133.5,-528 133.5,-516 133.5,-516 133.5,-510 139.5,-504 145.5,-504 145.5,-504 245.5,-504 245.5,-504 251.5,-504 257.5,-510 257.5,-516 257.5,-516 257.5,-528 257.5,-528 257.5,-534 251.5,-540 245.5,-540"/>
<text text-anchor="middle" x="195.5" y="-519.5" font-family="sans" font-size="10.00">trimmed_fastqc_GRID</text>
</g>
<!-- 9&#45;&gt;6 -->
<g id="edge12" class="edge">
<title>9&#45;&gt;6</title>
<path fill="none" stroke="grey" stroke-width="2" d="M195.5,-503.85C195.5,-466.83 195.5,-379.18 195.5,-334.39"/>
<polygon fill="grey" stroke="grey" stroke-width="2" points="199,-334.23 195.5,-324.23 192,-334.23 199,-334.23"/>
</g>
<!-- 10&#45;&gt;6 -->
<g id="edge13" class="edge">
<title>10&#45;&gt;6</title>
<path fill="none" stroke="grey" stroke-width="2" d="M161.11,-575.8C146.96,-567.2 132.37,-555.32 124.5,-540 88.08,-469.12 143.75,-376.34 175.66,-332.31"/>
<polygon fill="grey" stroke="grey" stroke-width="2" points="178.55,-334.29 181.7,-324.17 172.93,-330.12 178.55,-334.29"/>
</g>
<!-- 10&#45;&gt;9 -->
<g id="edge16" class="edge">
<title>10&#45;&gt;9</title>
<path fill="none" stroke="grey" stroke-width="2" d="M197.76,-575.7C197.43,-567.98 197.03,-558.71 196.66,-550.11"/>
<polygon fill="grey" stroke="grey" stroke-width="2" points="200.16,-549.95 196.23,-540.1 193.16,-550.25 200.16,-549.95"/>
</g>
<!-- 10&#45;&gt;12 -->
<g id="edge21" class="edge">
<title>10&#45;&gt;12</title>
<path fill="none" stroke="grey" stroke-width="2" d="M240.82,-575.88C264.68,-566.22 294.67,-554.09 319.9,-543.88"/>
<polygon fill="grey" stroke="grey" stroke-width="2" points="321.36,-547.06 329.32,-540.07 318.73,-540.57 321.36,-547.06"/>
</g>
<!-- 11&#45;&gt;6 -->
<g id="edge14" class="edge">
<title>11&#45;&gt;6</title>
<path fill="none" stroke="grey" stroke-width="2" d="M274.33,-647.57C278.42,-620.84 285.5,-568.09 285.5,-523 285.5,-523 285.5,-523 285.5,-449 285.5,-401.71 249.46,-357.41 222.99,-331.25"/>
<polygon fill="grey" stroke="grey" stroke-width="2" points="225.12,-328.44 215.47,-324.05 220.27,-333.49 225.12,-328.44"/>
</g>
<!-- 11&#45;&gt;10 -->
<g id="edge17" class="edge">
<title>11&#45;&gt;10</title>
<path fill="none" stroke="grey" stroke-width="2" d="M253.46,-647.7C244.44,-639.05 233.38,-628.45 223.56,-619.03"/>
<polygon fill="grey" stroke="grey" stroke-width="2" points="225.98,-616.5 216.34,-612.1 221.13,-621.55 225.98,-616.5"/>
</g>
<!-- 12&#45;&gt;6 -->
<g id="edge9" class="edge">
<title>12&#45;&gt;6</title>
<path fill="none" stroke="grey" stroke-width="2" d="M367.84,-503.83C360.25,-471.87 340,-402.61 299.5,-360 284.93,-344.67 264.95,-333.03 246.4,-324.62"/>
<polygon fill="grey" stroke="grey" stroke-width="2" points="247.72,-321.38 237.15,-320.63 244.95,-327.81 247.72,-321.38"/>
</g>
<!-- 15 -->
<g id="node16" class="node">
<title>15</title>
<path fill="none" stroke="#9fd856" stroke-width="2" d="M455.5,-468C455.5,-468 393.5,-468 393.5,-468 387.5,-468 381.5,-462 381.5,-456 381.5,-456 381.5,-444 381.5,-444 381.5,-438 387.5,-432 393.5,-432 393.5,-432 455.5,-432 455.5,-432 461.5,-432 467.5,-438 467.5,-444 467.5,-444 467.5,-456 467.5,-456 467.5,-462 461.5,-468 455.5,-468"/>
<text text-anchor="middle" x="424.5" y="-447.5" font-family="sans" font-size="10.00">samtools_sort</text>
</g>
<!-- 12&#45;&gt;15 -->
<g id="edge25" class="edge">
<title>12&#45;&gt;15</title>
<path fill="none" stroke="grey" stroke-width="2" d="M384.6,-503.7C390.89,-495.39 398.55,-485.28 405.46,-476.14"/>
<polygon fill="grey" stroke="grey" stroke-width="2" points="408.3,-478.19 411.55,-468.1 402.72,-473.96 408.3,-478.19"/>
</g>
<!-- 13&#45;&gt;12 -->
<g id="edge20" class="edge">
<title>13&#45;&gt;12</title>
<path fill="none" stroke="grey" stroke-width="2" d="M496.89,-575.88C474.1,-566.26 445.47,-554.19 421.33,-544.01"/>
<polygon fill="grey" stroke="grey" stroke-width="2" points="422.55,-540.73 411.98,-540.07 419.83,-547.18 422.55,-540.73"/>
</g>
<!-- 14 -->
<g id="node15" class="node">
<title>14</title>
<path fill="none" stroke="#70d856" stroke-width="2" d="M485,-396C485,-396 364,-396 364,-396 358,-396 352,-390 352,-384 352,-384 352,-372 352,-372 352,-366 358,-360 364,-360 364,-360 485,-360 485,-360 491,-360 497,-366 497,-372 497,-372 497,-384 497,-384 497,-390 491,-396 485,-396"/>
<text text-anchor="middle" x="424.5" y="-375.5" font-family="sans" font-size="10.00">remove_duplicates_picard</text>
</g>
<!-- 14&#45;&gt;6 -->
<g id="edge11" class="edge">
<title>14&#45;&gt;6</title>
<path fill="none" stroke="grey" stroke-width="2" d="M368.77,-359.97C331.62,-348.61 283.14,-333.79 246.92,-322.72"/>
<polygon fill="grey" stroke="grey" stroke-width="2" points="247.63,-319.27 237.04,-319.7 245.58,-325.97 247.63,-319.27"/>
</g>
<!-- 17 -->
<g id="node18" class="node">
<title>17</title>
<path fill="none" stroke="#5682d8" stroke-width="2" d="M434.5,-324C434.5,-324 336.5,-324 336.5,-324 330.5,-324 324.5,-318 324.5,-312 324.5,-312 324.5,-300 324.5,-300 324.5,-294 330.5,-288 336.5,-288 336.5,-288 434.5,-288 434.5,-288 440.5,-288 446.5,-294 446.5,-300 446.5,-300 446.5,-312 446.5,-312 446.5,-318 440.5,-324 434.5,-324"/>
<text text-anchor="middle" x="385.5" y="-303.5" font-family="sans" font-size="10.00">convert_bam_to_sam</text>
</g>
<!-- 14&#45;&gt;17 -->
<g id="edge27" class="edge">
<title>14&#45;&gt;17</title>
<path fill="none" stroke="grey" stroke-width="2" d="M414.86,-359.7C410.37,-351.64 404.94,-341.89 399.98,-332.98"/>
<polygon fill="grey" stroke="grey" stroke-width="2" points="402.95,-331.14 395.03,-324.1 396.84,-334.54 402.95,-331.14"/>
</g>
<!-- 20 -->
<g id="node21" class="node">
<title>20</title>
<path fill="none" stroke="#56c9d8" stroke-width="2" d="M631.5,-252C631.5,-252 473.5,-252 473.5,-252 467.5,-252 461.5,-246 461.5,-240 461.5,-240 461.5,-228 461.5,-228 461.5,-222 467.5,-216 473.5,-216 473.5,-216 631.5,-216 631.5,-216 637.5,-216 643.5,-222 643.5,-228 643.5,-228 643.5,-240 643.5,-240 643.5,-246 637.5,-252 631.5,-252"/>
<text text-anchor="middle" x="552.5" y="-231.5" font-family="sans" font-size="10.00">index_sorted_bams_without_dups</text>
</g>
<!-- 14&#45;&gt;20 -->
<g id="edge34" class="edge">
<title>14&#45;&gt;20</title>
<path fill="none" stroke="grey" stroke-width="2" d="M439.94,-359.87C462.43,-334.92 504.32,-288.45 530.17,-259.77"/>
<polygon fill="grey" stroke="grey" stroke-width="2" points="532.91,-261.96 537.01,-252.19 527.71,-257.27 532.91,-261.96"/>
</g>
<!-- 15&#45;&gt;14 -->
<g id="edge24" class="edge">
<title>15&#45;&gt;14</title>
<path fill="none" stroke="grey" stroke-width="2" d="M424.5,-431.7C424.5,-423.98 424.5,-414.71 424.5,-406.11"/>
<polygon fill="grey" stroke="grey" stroke-width="2" points="428,-406.1 424.5,-396.1 421,-406.1 428,-406.1"/>
</g>
<!-- 19 -->
<g id="node20" class="node">
<title>19</title>
<path fill="none" stroke="#56d8b1" stroke-width="2" d="M670,-396C670,-396 527,-396 527,-396 521,-396 515,-390 515,-384 515,-384 515,-372 515,-372 515,-366 521,-360 527,-360 527,-360 670,-360 670,-360 676,-360 682,-366 682,-372 682,-372 682,-384 682,-384 682,-390 676,-396 670,-396"/>
<text text-anchor="middle" x="598.5" y="-375.5" font-family="sans" font-size="10.00">index_sorted_bams_with_dups</text>
</g>
<!-- 15&#45;&gt;19 -->
<g id="edge33" class="edge">
<title>15&#45;&gt;19</title>
<path fill="none" stroke="grey" stroke-width="2" d="M467.07,-431.88C491.06,-422.22 521.23,-410.09 546.6,-399.88"/>
<polygon fill="grey" stroke="grey" stroke-width="2" points="548.1,-403.05 556.07,-396.07 545.49,-396.55 548.1,-403.05"/>
</g>
<!-- 16 -->
<g id="node17" class="node">
<title>16</title>
<path fill="none" stroke="#b6d856" stroke-width="2" d="M431.5,-252C431.5,-252 259.5,-252 259.5,-252 253.5,-252 247.5,-246 247.5,-240 247.5,-240 247.5,-228 247.5,-228 247.5,-222 253.5,-216 259.5,-216 259.5,-216 431.5,-216 431.5,-216 437.5,-216 443.5,-222 443.5,-228 443.5,-228 443.5,-240 443.5,-240 443.5,-246 437.5,-252 431.5,-252"/>
<text text-anchor="middle" x="345.5" y="-231.5" font-family="sans" font-size="10.00">prepare_insertion_table_folder_GRID</text>
</g>
<!-- 16&#45;&gt;2 -->
<g id="edge4" class="edge">
<title>16&#45;&gt;2</title>
<path fill="none" stroke="grey" stroke-width="2" d="M326.96,-215.7C317.7,-207.05 306.34,-196.45 296.24,-187.03"/>
<polygon fill="grey" stroke="grey" stroke-width="2" points="298.52,-184.37 288.83,-180.1 293.75,-189.49 298.52,-184.37"/>
</g>
<!-- 17&#45;&gt;16 -->
<g id="edge26" class="edge">
<title>17&#45;&gt;16</title>
<path fill="none" stroke="grey" stroke-width="2" d="M375.61,-287.7C371.01,-279.64 365.44,-269.89 360.35,-260.98"/>
<polygon fill="grey" stroke="grey" stroke-width="2" points="363.27,-259.05 355.27,-252.1 357.2,-262.52 363.27,-259.05"/>
</g>
<!-- 19&#45;&gt;18 -->
<g id="edge28" class="edge">
<title>19&#45;&gt;18</title>
<path fill="none" stroke="grey" stroke-width="2" d="M614.34,-359.65C635.81,-334.27 671.5,-284.62 671.5,-235 671.5,-235 671.5,-235 671.5,-161 671.5,-72.21 545.38,-36.95 480.74,-24.7"/>
<polygon fill="grey" stroke="grey" stroke-width="2" points="481.01,-21.2 470.55,-22.87 479.77,-28.09 481.01,-21.2"/>
</g>
<!-- 20&#45;&gt;18 -->
<g id="edge31" class="edge">
<title>20&#45;&gt;18</title>
<path fill="none" stroke="grey" stroke-width="2" d="M554.98,-215.84C558.57,-184.49 561.92,-117.04 532.5,-72 520.22,-53.2 498.73,-40.12 479.95,-31.67"/>
<polygon fill="grey" stroke="grey" stroke-width="2" points="481.3,-28.44 470.72,-27.77 478.57,-34.88 481.3,-28.44"/>
</g>
</g>
</svg>
