<?xml version="1.0" encoding="UTF-8" standalone="no"?>
<!DOCTYPE svg PUBLIC "-//W3C//DTD SVG 1.1//EN"
 "http://www.w3.org/Graphics/SVG/1.1/DTD/svg11.dtd">
<!-- Generated by graphviz version 2.38.0 (20140413.2041)
 -->
<!-- Title: snakemake_dag Pages: 1 -->
<svg width="184pt" height="620pt"
 viewBox="0.00 0.00 184.00 620.00" xmlns="http://www.w3.org/2000/svg" xmlns:xlink="http://www.w3.org/1999/xlink">
<g id="graph0" class="graph" transform="scale(1 1) rotate(0) translate(4 616)">
<title>snakemake_dag</title>
<polygon fill="white" stroke="none" points="-4,4 -4,-616 180,-616 180,4 -4,4"/>
<!-- 0 -->
<g id="node1" class="node"><title>0</title>
<path fill="none" stroke="#d6d856" stroke-width="2" d="M103,-36C103,-36 73,-36 73,-36 67,-36 61,-30 61,-24 61,-24 61,-12 61,-12 61,-6 67,-0 73,-0 73,-0 103,-0 103,-0 109,-0 115,-6 115,-12 115,-12 115,-24 115,-24 115,-30 109,-36 103,-36"/>
<text text-anchor="middle" x="88" y="-15.5" font-family="sans" font-size="10.00">all</text>
</g>
<!-- 1 -->
<g id="node2" class="node"><title>1</title>
<path fill="none" stroke="#56d882" stroke-width="2" d="M164,-108C164,-108 12,-108 12,-108 6,-108 0,-102 0,-96 0,-96 0,-84 0,-84 0,-78 6,-72 12,-72 12,-72 164,-72 164,-72 170,-72 176,-78 176,-84 176,-84 176,-96 176,-96 176,-102 170,-108 164,-108"/>
<text text-anchor="middle" x="88" y="-87.5" font-family="sans" font-size="10.00">Assign_Gene_and_Transcript_IDs</text>
</g>
<!-- 1&#45;&gt;0 -->
<g id="edge1" class="edge"><title>1&#45;&gt;0</title>
<path fill="none" stroke="grey" stroke-width="2" d="M88,-71.6966C88,-63.9827 88,-54.7125 88,-46.1124"/>
<polygon fill="grey" stroke="grey" stroke-width="2" points="91.5001,-46.1043 88,-36.1043 84.5001,-46.1044 91.5001,-46.1043"/>
</g>
<!-- 2 -->
<g id="node3" class="node"><title>2</title>
<path fill="none" stroke="#80d856" stroke-width="2" d="M139.5,-180C139.5,-180 36.5,-180 36.5,-180 30.5,-180 24.5,-174 24.5,-168 24.5,-168 24.5,-156 24.5,-156 24.5,-150 30.5,-144 36.5,-144 36.5,-144 139.5,-144 139.5,-144 145.5,-144 151.5,-150 151.5,-156 151.5,-156 151.5,-168 151.5,-168 151.5,-174 145.5,-180 139.5,-180"/>
<text text-anchor="middle" x="88" y="-159.5" font-family="sans" font-size="10.00">Identify_Mu_insertions</text>
</g>
<!-- 2&#45;&gt;1 -->
<g id="edge2" class="edge"><title>2&#45;&gt;1</title>
<path fill="none" stroke="grey" stroke-width="2" d="M88,-143.697C88,-135.983 88,-126.712 88,-118.112"/>
<polygon fill="grey" stroke="grey" stroke-width="2" points="91.5001,-118.104 88,-108.104 84.5001,-118.104 91.5001,-118.104"/>
</g>
<!-- 3 -->
<g id="node4" class="node"><title>3</title>
<path fill="none" stroke="#56d8d8" stroke-width="2" d="M153.5,-252C153.5,-252 22.5,-252 22.5,-252 16.5,-252 10.5,-246 10.5,-240 10.5,-240 10.5,-228 10.5,-228 10.5,-222 16.5,-216 22.5,-216 22.5,-216 153.5,-216 153.5,-216 159.5,-216 165.5,-222 165.5,-228 165.5,-228 165.5,-240 165.5,-240 165.5,-246 159.5,-252 153.5,-252"/>
<text text-anchor="middle" x="88" y="-231.5" font-family="sans" font-size="10.00">prepare_MuSeq_table_folder</text>
</g>
<!-- 3&#45;&gt;2 -->
<g id="edge3" class="edge"><title>3&#45;&gt;2</title>
<path fill="none" stroke="grey" stroke-width="2" d="M88,-215.697C88,-207.983 88,-198.712 88,-190.112"/>
<polygon fill="grey" stroke="grey" stroke-width="2" points="91.5001,-190.104 88,-180.104 84.5001,-190.104 91.5001,-190.104"/>
</g>
<!-- 4 -->
<g id="node5" class="node"><title>4</title>
<path fill="none" stroke="#afd856" stroke-width="2" d="M116,-324C116,-324 60,-324 60,-324 54,-324 48,-318 48,-312 48,-312 48,-300 48,-300 48,-294 54,-288 60,-288 60,-288 116,-288 116,-288 122,-288 128,-294 128,-300 128,-300 128,-312 128,-312 128,-318 122,-324 116,-324"/>
<text text-anchor="middle" x="88" y="-303.5" font-family="sans" font-size="10.00">bam_to_sam</text>
</g>
<!-- 4&#45;&gt;3 -->
<g id="edge4" class="edge"><title>4&#45;&gt;3</title>
<path fill="none" stroke="grey" stroke-width="2" d="M88,-287.697C88,-279.983 88,-270.712 88,-262.112"/>
<polygon fill="grey" stroke="grey" stroke-width="2" points="91.5001,-262.104 88,-252.104 84.5001,-262.104 91.5001,-262.104"/>
</g>
<!-- 5 -->
<g id="node6" class="node"><title>5</title>
<path fill="none" stroke="#d8ac56" stroke-width="2" d="M148.5,-396C148.5,-396 27.5,-396 27.5,-396 21.5,-396 15.5,-390 15.5,-384 15.5,-384 15.5,-372 15.5,-372 15.5,-366 21.5,-360 27.5,-360 27.5,-360 148.5,-360 148.5,-360 154.5,-360 160.5,-366 160.5,-372 160.5,-372 160.5,-384 160.5,-384 160.5,-390 154.5,-396 148.5,-396"/>
<text text-anchor="middle" x="88" y="-375.5" font-family="sans" font-size="10.00">remove_duplicates_picard</text>
</g>
<!-- 5&#45;&gt;4 -->
<g id="edge5" class="edge"><title>5&#45;&gt;4</title>
<path fill="none" stroke="grey" stroke-width="2" d="M88,-359.697C88,-351.983 88,-342.712 88,-334.112"/>
<polygon fill="grey" stroke="grey" stroke-width="2" points="91.5001,-334.104 88,-324.104 84.5001,-334.104 91.5001,-334.104"/>
</g>
<!-- 6 -->
<g id="node7" class="node"><title>6</title>
<path fill="none" stroke="#59d856" stroke-width="2" d="M141,-468C141,-468 35,-468 35,-468 29,-468 23,-462 23,-456 23,-456 23,-444 23,-444 23,-438 29,-432 35,-432 35,-432 141,-432 141,-432 147,-432 153,-438 153,-444 153,-444 153,-456 153,-456 153,-462 147,-468 141,-468"/>
<text text-anchor="middle" x="88" y="-447.5" font-family="sans" font-size="10.00">bwa_mem_and_sorting</text>
</g>
<!-- 6&#45;&gt;5 -->
<g id="edge6" class="edge"><title>6&#45;&gt;5</title>
<path fill="none" stroke="grey" stroke-width="2" d="M88,-431.697C88,-423.983 88,-414.712 88,-406.112"/>
<polygon fill="grey" stroke="grey" stroke-width="2" points="91.5001,-406.104 88,-396.104 84.5001,-406.104 91.5001,-406.104"/>
</g>
<!-- 7 -->
<g id="node8" class="node"><title>7</title>
<path fill="none" stroke="#d88556" stroke-width="2" d="M70,-540C70,-540 14,-540 14,-540 8,-540 2,-534 2,-528 2,-528 2,-516 2,-516 2,-510 8,-504 14,-504 14,-504 70,-504 70,-504 76,-504 82,-510 82,-516 82,-516 82,-528 82,-528 82,-534 76,-540 70,-540"/>
<text text-anchor="middle" x="42" y="-519.5" font-family="sans" font-size="10.00">trimmomatic</text>
</g>
<!-- 7&#45;&gt;6 -->
<g id="edge8" class="edge"><title>7&#45;&gt;6</title>
<path fill="none" stroke="grey" stroke-width="2" d="M53.3708,-503.697C58.7185,-495.559 65.2043,-485.689 71.1106,-476.701"/>
<polygon fill="grey" stroke="grey" stroke-width="2" points="74.1932,-478.384 76.76,-468.104 68.3432,-474.539 74.1932,-478.384"/>
</g>
<!-- 8 -->
<g id="node9" class="node"><title>8</title>
<path fill="none" stroke="#56a9d8" stroke-width="2" d="M157.5,-540C157.5,-540 112.5,-540 112.5,-540 106.5,-540 100.5,-534 100.5,-528 100.5,-528 100.5,-516 100.5,-516 100.5,-510 106.5,-504 112.5,-504 112.5,-504 157.5,-504 157.5,-504 163.5,-504 169.5,-510 169.5,-516 169.5,-516 169.5,-528 169.5,-528 169.5,-534 163.5,-540 157.5,-540"/>
<text text-anchor="middle" x="135" y="-519.5" font-family="sans" font-size="10.00">bwa_index</text>
</g>
<!-- 8&#45;&gt;6 -->
<g id="edge7" class="edge"><title>8&#45;&gt;6</title>
<path fill="none" stroke="grey" stroke-width="2" d="M123.382,-503.697C117.861,-495.474 111.153,-485.483 105.068,-476.421"/>
<polygon fill="grey" stroke="grey" stroke-width="2" points="107.965,-474.456 99.4843,-468.104 102.153,-478.358 107.965,-474.456"/>
</g>
<!-- 9 -->
<g id="node10" class="node"><title>9</title>
<path fill="none" stroke="#5682d8" stroke-width="2" d="M59.5,-612C59.5,-612 24.5,-612 24.5,-612 18.5,-612 12.5,-606 12.5,-600 12.5,-600 12.5,-588 12.5,-588 12.5,-582 18.5,-576 24.5,-576 24.5,-576 59.5,-576 59.5,-576 65.5,-576 71.5,-582 71.5,-588 71.5,-588 71.5,-600 71.5,-600 71.5,-606 65.5,-612 59.5,-612"/>
<text text-anchor="middle" x="42" y="-591.5" font-family="sans" font-size="10.00">cutadapt</text>
</g>
<!-- 9&#45;&gt;7 -->
<g id="edge9" class="edge"><title>9&#45;&gt;7</title>
<path fill="none" stroke="grey" stroke-width="2" d="M42,-575.697C42,-567.983 42,-558.712 42,-550.112"/>
<polygon fill="grey" stroke="grey" stroke-width="2" points="45.5001,-550.104 42,-540.104 38.5001,-550.104 45.5001,-550.104"/>
</g>
</g>
</svg>
